<mxfile host="app.diagrams.net" modified="2022-09-21T07:05:26.692Z" agent="5.0 (Windows NT 10.0; Win64; x64) AppleWebKit/537.36 (KHTML, like Gecko) Chrome/90.0.4430.72 Safari/537.36" etag="tood4ruS59RotNA2Y2Bi" version="20.3.3" type="github">
  <diagram id="Oa8Lwwf2HI9RwF8qu_R5" name="第 1 页">
    <mxGraphModel dx="3076" dy="800" grid="1" gridSize="10" guides="1" tooltips="1" connect="1" arrows="1" fold="1" page="1" pageScale="1" pageWidth="827" pageHeight="1169" math="0" shadow="0">
      <root>
        <mxCell id="0" />
        <mxCell id="1" parent="0" />
        <mxCell id="guNfYvMQQLh1wrcvsOJc-2" value="WebClient" style="rounded=1;whiteSpace=wrap;html=1;sketch=1;" vertex="1" parent="1">
          <mxGeometry x="-1379" y="223.5" width="100" height="50" as="geometry" />
        </mxCell>
        <mxCell id="guNfYvMQQLh1wrcvsOJc-4" value="" style="shape=image;verticalLabelPosition=bottom;verticalAlign=top;imageAspect=0;image=data:image/png,iVBORw0KGgoAAAANSUhEUgAAAggAAAIICAYAAAAL/BZjAAAgAElEQVR4XuydCdh31dT/v3+vKXMSGUKIokGSkhQRJTORoSSJUJmKDEWRsahMKYWUV5ShUUqKUoSUUIaSsQwZktn7vz7Ps+/nue/7uX/370xr7X3OWeu67uvpfZ2z197fvX/nrLOG7/p/CgkEAoE+IXATSbeXtIqk20m6jaTbpr+VZv3/byVp/t8tJXHNTWf9/T9JjMm/N05A/FvS7L9/pf+bf/8u6S+S/irp+nl/10n6w6xr/iyJv9+n/z//MkZIIBAI9AABHgohgUAgkB8BXtozL/qZf+8hac30dy9J/N8YBn0WjISfSfqppB9JulzS1ZL+NO8vDIk+73LMfRAIhIEwiG2MRfQEAYyAm6c/vACbSdpY0sOTEXCjnqzDepr/kfR9SedJ+pakr0r6o6S/Je/EP60nEOMHAoHAUrdiSCAQCNgggDt/S0lbSXq8pLtK+p/0F8ZAPcz/KwnDgb/fSDpJ0lmSzkiGQ73R4upAIBCYikAYCFMhigsCgakIEMPHC4ARsHkKA6ws6daSwhCYCl+rCzAcyIkg/+G3kr4i6fTkdYgwRSto4+axIxAGwthPQKy/LgKECbaQ9ChJG0haQ9LdJd2s7kBxvSkC/0i5DVdK+rakMyWdk5ItTRXH4IHAUBAIA2EoOxnrsECAr/91JW0i6cGSNkr/d3gFLNC2H5PwxCWSLpL0TUkXSrpU0v/Zqw4NgUD/EAgDoX97FjO2Q4CywLUkrSNpW0nbSKI0MGS4CBCeOE3SqZK+l6oqKN8MCQRGj0AYCKM/AqMGgCTCO0vaUNILJD06JRCOGpSRLx4vA+GIwyVdnBIiqZ4ICQRGh0AYCKPb8lEveIYUCA/BqyQ9e9RoxOKrInCcpIMkXSaJEssISVRFLq7rNQJhIPR6+2LyFRG4haRXSNpZ0p0ibFARtbhsPgI3SPq1pKMkvVcS/3dIIDBYBMJAGOzWjn5hlB2+MBER3TtCB6M/D10DQCjiJynR8UhJ53atIMYLBHIjEAZC7h0I/V0hQGXB4yQ9M5Uhrt7VwDFOIFABAeii4WA4PiU9ws8QEgj0GoEwEHq9faOfPEREcBI8ORkGVCGEBAK5EaAK4lOSPpe4F6iUCAkEeodAGAi927LRT5h8ArgJdpK0oyT+75BAoFQEMBaOlvSJxLkQFRGl7lTMawUEwkCIQ9EHBKAyXk3SSyW9OvIJ+rBlMccFECBvgWqI96XyyaCCjmNSNAJhIBS9PTG5ZBTsL+l20dcgzsNAECA/4Q+S3ijpQwNZUyxjgAiEgTDATR3AkqA2fpek9VPDowEsKZYQCCyIAPkJ0D+/JrW3DpgCgWIQCAOhmK0Y/UTuJmn3lHB439GjEQCMEYEfSzpR0qGSfjlGAGLNZSEQBkJZ+zHG2dDz4PmpVXJ0RBzjCYg1z0eATpQnp+TGUwKeQCAXAmEg5EJ+3HphM3xScqvea9xQxOoDgUURoF3121PJ5LWBVSDgiUAYCJ5oj1sXZ+0ekvZMf3H2xn0eYvX1EKD/w3skHSbpZ9EPoh54cXUzBOIh3Qy3uKs6AjAcUqJIO12SDkMCgUCgHQLfTe3I6QsRjI3tsIy7F0EgDIQ4HpYIPCG1zSWkgKEQEggEAt0ggGFwTWpAdno3Q8YogcBcBMJAiBPRNQKcqZcn/gKaJIUEAoGALQI0jYJ86ZAIPdgCPbbRw0AY247brZcKBFgOd5F0Tzs1MXJhCFCO9ytJGxU2rzFO5ypJH0kcIlRChAQCrRAIA6EVfHGzpFWTUbBPkBoVdx5ucOhVQVMiemIckf4tDoQRTgjypbdIOkrS70a4/lhyRwiEgdARkCMchryC7SW9TdJKI1x/6Uv+sKTbpi6XlnPFQOAc0C+D/36KpbIYuxYCGIgY7uwL+QohgUAtBMJAqAVXXJy8BC9ItdlBbFTmkTgmfc3/r6OBABL/I+ksSZtLimdLOWeDcAOGAl4eukuGBAKVEIgfcSWY4qL0wCfHgMZJNw9EikXgc5KelsrfvA0EQOGZ8iVJjyoWofFO7O+S9k4JjfAqhAQCiyIQBkIckCoI7JwMg7tWuTiuyYYAX+/bSJppI5zDQGDxhBtOkESZa0h5CJBYSifJo8ubWsyoJATCQChpN8qby9PTg2S98qaWbUa4a/lCPlPSdyQ9UdKrss1muWKMg8dK+s+sueQyEJjCLSR9MuGTG54/SfqqpK0kRVhs+W5cKukASZ/OvUGhv0wEwkAoc19yz2rT9OB4ZMSS9XtJX5P09fR3gaR/pg3CgOIleOPMG8bL79Gz5jUznZwGAnO4TXr5PCYzPrjT3ylpP0kPkfTQ9LeZpDtknltu9WCDsYtH4cLckwn9ZSEQBkJZ+5F7NmukB8VOIzYM/ioJKlsMgs9KwiCY/VU+s0cbSDo7VQrk3LeLJG0pidK2+ZLbQGA+VFLA9LdJTpDSHj5P0nGzyIRIqsRYeLIkjGI8ZbfMPM9c6jEUjpT01tTrIdc8Qm9BCISBUNBmZJzK7SS9WNKBIzQMoKz9jaSLJX0g9YyYlsDFS+8ySblzMn6aCIr+MOHslGAgMLVbS/qepLtnPOMzqh8m6fwJ84AOnLyJl0paR9IYKcI5+3ulioc/F7BfMYWMCISBkBH8AlSz/4+TdLwDoU4By102BTwClHt9MH0x1Sn9IpxAC967ZV4Qng6orBerby/FQAAqcCM57o6ZceMFuLakyyvMA0Pw9ZJelDwLeBzGIhgHT5X05aBvHsuWr7jOMBDGu/crpy+p+46okRKc9cShz5B0naR/19x+vjAJK1Dnn1N4yREOou3vYlKSgcA8yUn4gaS75ARPEl0Q7y/pjxXngXHD74Uk0Dclw6zirb2+DO/a9yXhdQlvQq+3stnkw0Bohluf7yK7/L2SiMfetM8LqTj3b6UEtW+mF2qb9rj7SnpzRb1Wl8GOR/7DFRUUlGYgMGUMG1z8tADPKedKIgm37nnAi0CvEXIqqF5hL4YuVO58TNIrJHH+QkaCQBgII9notMxnp+qEew182STuHZvyCaq8SKvAQcVC7nIwQiHbSuLlVkVKNBCYN5UEJC7yVZ5TeOmRkNtGCFcQpnvOCIwFPHCvSyHJNpjFvT1BIAyEnmxUy2neR9JBhdSkt1zKgrfjcscQOCl96ZAQ16XwQvtK5p4TfMU9P5VVVl1bqQYC86fy4pTMrJycm9cmD1NVTBe7bv3kmSPRkd/cUAW2TrwnJMmGDBiBMBAGvLkphECnvcMyP4itUCaP4Lz0gIcLwEKokyc8kbOFNW7wV0o6pOYCSzYQWAqsjydnzoGBdfIRi1Q21IR82eVQTUNNTiiCKqGhCbTNL0meuhlekKGtcfTrCQNhmEeAfSXDnZdm7lhv1whTgUALW+q1KUtciKOgK53Em89JSVpdjdlkHBLjmuQ+lG4ggMUzJDHPnM8iklUxAKmy6Fo4Q5RN4pqnNTqJrkOSX6SkXSp7QgaGQM4f5cCgLGo5tGCmlnlIZVm4g7+QXLiQAtVNLmuyQbTJ5QWWUyjF5AUzjZthoTn2wUBg3nQahIMjp5DfQekqtMwWgmGAJ+HjKY/EQkeuMTHS35IqPHLNIfQaIBAGggGoGYekdOtESffLOIeuVV8r6TUpXv3brgdfZDyS12CWy2lkkfewtSTyD5pIXwwE1gbWtBHPKfSzgBba2viEC4IeHhjyQ6J6piQS7oQqHBM59zl0V0QgDISKQBV+GV8ncM3vNhDCI76WT0sxd8Ikf3PGfy1JNLLJ2WOBjHGS3iBEaip9MhA4w1SJ8ILJKXgyIEfyEEqOyX+gfJBeGkMQyiDfn5I/rQ2tIeBV9BrCQCh6eypNbt2UuT+EemzcvJ9IX5PfbuhWrwTaIhdBr3tJZsY/YuF4g9qS0/TJQGBLVkqlqbw0cwkvNThCOIdewnOYSpldJD1rIP0gaPxE1Q3EWCE9RSAMhJ5uXGpb+8L0ld33xKefpyY6704JiLl2hRcUDZpgzMsldI+ky+APO5hA3wwEloz7ndAK/AK5hDwE9qDrctkq6yGRkZDa9gX0+qgy38WuITdhd0lHtQiTtZ1D3N8CgTAQWoCX8VYqE2gznPNLq+3yCSP8Khk472lAe9xW/0L3UxlBtnkuoXRsu1T618Uc+mggsG7YFvEg5SwPpMafhk3e4a2Zfb9JSjQmQfXOmas82p5F+jlAJEVTtJAeIRAGQo82K011q0QIdLP+TX3JjDEM4MAnIY2v9VKEFzNNq3IJuFBX/qEOJ9BXAwEIIBoi2S2ndwya7o0yhbpmH4OnSPpIMpj6+swm0ZaEW7xDIT1BoK+HrSfwdjpNEuZOkPT4zA/NNouiSQ5xSR4STTPz2+ifdC95B7yM6N6XS/ZPXAddJnb12UBgHx6auDxyVZJgtME/0YSDoutzdHNJkC9hKHBe+yiEHGBhJHxSt1FaH9fb+zmHgdCPLaRsERrhNfsx3RVmSY4BrlLKyEps9vJdSetlxBbPBYyXXRtNfTcQ2JIXJ0KsnM+qh0v6WsbzMVs1lQ8YClQKrF7InOpOA2OcMs+u+qTU1R/XV0Qg54+u4hRHf9mukkjeu3UPkbha0hskQThUIh0r5/+YFB/NBe+PJG0oCfKnrmUIBgKYHC6J30EugdL7QZKuyjWBBfSSo/DMRDDVR0OB8753xyG1grZnGFMJA6HcfcTdfWj6six3lgvPDMOA/g+0lS7ZlUiHRl6iuVzYED8Ra29bzjjpfAzFQOA5dWqKYef6LdBBk66NbXgpLOaOoQCPwst66lGgo+Yehr8BC8xHM2YYCGVuNaEEHoh96whHjwRipMRsc2V/V93R+2ZmfIPzgUY+l1WdcIPrhmIgsPTbSLogc/kjBi8v4xKF0MN+Kfl3lRInuMicCDXQxvzHPZv34KcbBkJZW0zGNvXXZ0riy6AvQviAPgk7SKJUr3S5ZTIO7pppoiRrEVuHXthShmQggBMNyMgXYf9yCV4nkoVLFQwFclqodrppqZNcYF501YRNklyPLhN1ewRBeVMNA6GcPWEv6E74op7VPFOvvnmBrtfFdpYGSLygc8nBkl7loHxoBgKQwTgIS18uIRyEYYkHqGQhZwmacui6+yJUjWA08wxs0pysL+vszTzDQChjq3AJ4jV4YBnTqTQL3IHPlXSRccvlSpOpcRFeDuKeuc4+zbQo8+KLyVqGaCCwbyTnHZdxD2FYhOK8dCG3Bh4HaKPxvvRFvpnYTEkODcmIQK6HZMYlF6d60/Swu0dxM1t4QuQWkBDFy6fEksXFYCTv4OuSbp8JayoW2G9yNTxkiAYCuPHiIx+Ac5hLjk7x/j586RKSgcmQpOe+EKxdmebM7zUkEwJhIGQCPqmlKQw/WhKwSheqEfjyhoqYFsx9E/I7SHLjiyqHkKeBu7eLHgtV5z9UA2Fm/cSrH1YVjI6vI04OM+CXOh7XcjgIlqAT57mTs1Np1TUSztlT0ker3hDXdYtAGAjd4ll1NH6ctJTdtyesiOQZvDzFNKuusbTrKLvM9cXJy4QGUISRPGXoBgJfxrTlpndDDiFMhOseIrA+CYnQfJj0oQMsvx2MGphGSy6Z7tP+V55rGAiVoersQpKHyDLm66N0oavdOyS9rfSJTpkf8WJ49XNUhuCCphmVR1LifBiGbiCwXl5yJOPlqmzAi0H2fdcsmB4/uTdKenVPPJgnS3q2EaGYB9a91BEGgu+2kYxImVau8ro6q70kVSdgJPRZMMiI+ecq+SLjHr6DHDIGAwFcia/DiJnreYY38MAcG9yBzpUlndOTpEs8NSRy/6GDdccQFRDI9YOqMLXBXULrWJoUlU5iwpcQ7nC+jKjX77NwvnHrb5lpEbQMfkBGboixGAjs8wEpbJdjq3F9c8bwZPRRSPqk38TpPUhi/L2kR6bQUh+x7tWcw0Dw2a5nSaL2Pme3wCorPVbSK3uahLjQ+nBJsqYcQoUH3QjxxOSSsRgI4LtSYh99RCawf5KMwT6GGmYgW03SIZKekQnDqmpJXoTH5JNVb4jrmiEQBkIz3KreBb57pa+bXC7uKnP9ReJD/2yVi3tyzVop7wBmuRyyS6KdzqF7RueYDATWfAdJvKhzVQV9ugcv1yrn8anJULhblYszXYMhtk8qd+1DqWkmmNqpDQOhHX6L3U1CHNzoHGJK7EoVrHAqFPpYujgJU4yxMyRtkQn0Dyc2uEzql6kdm4HAwteW9J1MrnJCcpA4lUzFXPVMrioJxk/I0EoVKhzekv48iMdKxcFsXmEg2EDLVys/LihDSxUS93DTDeFhNh9jmkVRQppD4DmAa6EEKt4xGgjsOV47Km9ydOmkjTGkZ0NhASTc8P7kncnxe6qik/At1Rh9I26rsras14SB0D38GAefT6VP3Y/efkSsbkr+yKwfYlOU+0mCCjcHEQxfMfeSRMimBBmrgQD2/AafmGkTfiBpvQHV7c+QjG1YsDf0LElP6EEX2UxHspnaMBCa4TbpLlzbkAqRuV6iEKvbTRIu8KHG7b6fqSUweEJAc35BGz9mAwHvAYYiuSg5ZMdUeplDt4VO3hUvSM+OUt8blJA/eECGmcU+1hqz1I2utYhCLiYxiiYj8P2XKJdJelJK4ipxfl3M6UMZwzpHSSIxsSTDa8wGAucpZz4C3iRInPjdDUnWTK3dcxle07AkxEfHT0I9IS0RCAOhJYDpdjjOIcQpteHSQZKIyw/5R4NhBu1ujmoRShkfVCBvxNgNBH6ez5eE8ZZDvpH4BejDMSThY4jnCcnNJcpVKYR6TYmT69OcwkBov1u8mGgCBCNZaQILIg/IzxX2Zds1TrAl0ikRQ81bYHXbWBLtr0uTMBCWsisSUsO7k0NIloXEaWgCrk+XdGTGstLFMOXZBw8J+SAhDREIA6EhcOk2knZgT4OkpTQhFk4989CtaM4wXzPwynsL4YRd00PSW3cVfWEgLEXpdpIuzuTh+3v6miU+PkS5cwo5EPsvTWhNT7dPyl5DGiAQBkID0NItxLmgI87RAGixWUP7ilVPMuIYZFNJ52Va6NGSds6ku4raMBCWowTpD9TXOX6vvKAofe07dfliZ44wzg6ZqocWmxfhHYyEi6r8YOKauQiEgdDsRBBvJucgRyndNOMAopYTmy2rd3fxsCe0kCP3A0549P61YNTCQJi7OTulfIQcz713Sdq74LPSxdS2k3Rcoc9FwoBUmIXUQCDHD6XG9Iq8FFcaTZdytZedBAoxN0IeUM2ORWBRo5NeDuEcwCdRsoSBsOLunC0pR78GQg30Ouh7d9Rp5/0+6XeRi+560vww5GmoReJoSEUEwkCoCFS6jDr3UwpMyjlVEg2haGIyFsEYIsRz8wwL3lPSYT1I/AwDYcXDcavUch1CK2/5mSSIvPrc0KkKZjSl+1TqClvleq9rqOKiU+3XvRT2XU8YCNV3kJwDvj5yNf9ZaKbkG/AVTZLe2ATOiRyJUZQ0Ek/uQ+laGAgL/yr4kqS1cY58BLqlvmckP1aeS68rLOSAJ4EeLaV7/4o4ImEgVNsGvlYpZSwp5+CPkl6WsZ1xNeRsriKsgGHkLWC+hiT+7YOEgTB5l96aXl7e+0jlCyRDV3grzqSPluvvK6wMnA8rqObDSJhyKMJAmP6rWT/FrXIQ8Eya3dWSnjzS8h1K1nDVesc4yUB/Saqpn35qyrgiDITJ+4Cxj9GP8e8tlEY/uideqC6wgVHyC5JKah+NBxAjIUogF9nhMBAWP/6QIFE/XRLPAYQ8hDuG0i2uzgOIpjHw60Oh6y084KCq7pOEgbD4bnGO4CfIEWqAP+OIPh2mlnNdJX1o5cj9mDR1ckEwXoJMaQJCYSBMPvWw8l0uiYSbUuTc9OUx1t7nZJ+TB+IttMa+ew87xYWBMP2kUJp3/PTLOr+Cl9NdJVEuOxbBC0sFGAyHpQjhQj4Ef1vKhEqaRxgIC+8Gmc40WeGlUIqQ8LP/QFs0V8H4jpKuzJQk+rSeckuEgTD9ZBFqgGgLr5y3fEYSBsqYBC8g1NMkL5YihCzpwFsyp0kWrMJAWBF23I1kqpfSrYxY2YskfTTLCSlH6ftTDoD3jA5PrJQldWmsikEYCNWQwkv4c0n09PAU8lroZ0CvlLHJi1OpcCmJ34QZ1otW0XOPYRgIc/Eg14DEJQ5KCQKvwfNG+gCZjT/8EyR2ectv0lnoq/sxDITqJ4Yv+U9K+p/qt3RyJZ0HIRcaMg3zJKDAHIpmPLYlCPlm0DLfUMJkSphDGAjLdwFmRCx5sotLkGtTs6VcfQZKwIA5ELcEgxycBxgmfcY/DIR6p/izqTqo3l3tr4Z0a4/2w/RyhIdLOkHSqoXM/gxJTwkjYeluhIGwFAfCCriSaY1cgmAckMhDc5mxy6slwWPvLTy0cP/2WcJAqLd7eBChKqdDoaeQsEi+E7/7MQqVDXhuSzESPiDp5ZLGmgy+7AyGgbDUSII0ZZ9CfplwtZPdHAkzS8tLcfN7cx78QRJVLBCq9FnCQKi/e7i9oQn2fjb+MjX/GmOogV0izAAG3r/1SSeERMr9ekCnXv+E17jD+0dQY2pul75K0jslkV2bW2BXoy43YmBLd+Lzkp7ovCn/TRntQ2BZCwOh/uHhmUhcnM6P3vL41OvFW28p+gjzQly0ZgET4jmwl6SDC5hLtimM3UCgNTLVATka/szf9HMkPUESDUVCliaK0m/Bm8FySKVnYSA0+yVRUksbce+vWZKSeTmONdTAboH5yZLITcgtdODcOSWv5p5LFv1jNhCgWP1yhofAQhtNctSOkq7PcgrKU0om+Q9Tdrfn7Ch1wzDpS6+FadiEgTANocn/O54rPFje8u705eqttyR9hBuOSx9MuedFyBdj5dLcE8mhf6wGwh3SFwK8/rmFL9bnjqAFbB2c8exQcuZ9Pp+THkx15lrytWEgNN8djNSTJG3TfIhGdw4pxNUIgHQT+UcYCfScyS3kJFGKOjp6e+8HcO6NRj9kKJBikAiYW/hCecaImrZUwfv2kqA29j6bQ6hamI9vGAhVTtzka/iA+FWGXixnSnrM2BPkUniRDyhCr7kFtsV1xubl9X4I595kWLtw55MMlFNg5YOTnIdA3zPlu8bx7ZJe0/WgU8aDrfJ+kiCtGZKEgdB+NzHgwdH7WYlX8dj20+/9CHhyTpf0qAx7MB88PugofR7NM9v70Oc+rW9KpSu558EXwmNH3FdhEv7woRPr8z6XsFV+PPehMNAfBkI3oMKwR9t3T6HvSEmdDz3XPl8XFWZfLITEjtJHeuKMQrwfxDlBhQTpyALKGYlrwtQ11nrnxc4ATJbeLZV5ENP2F7KaoUkYCN3s6GqSaLNOGZ6nHJIIezx1lqoL7y/Ph20zT5DnNgnl5EcMXsZiIMBKiAXq3Yxl/gHigJOAh0s7ZC4Cj8tQA86P/f6S4J8YooSB0N2u0k113+6GqzQSJc+UXFJuF7K05JkzzQdWTqEcFUp+yrAHLWMwEEg0+rakNTLv5CkpITFIkFbcCFyI/Nge5LxHEOLsMuBksDAQujtQ0LF/Q9IDuxuy0kjE3/lqprohZCm7KkyXuRMXoeSmVJ4yyMHKGAyEr0vaJPMOnp0YAYPnYOGNeKmk9znvERTOdxmwcQCcYSB0e6j4asQT6cm6imFAbg68ICFLEYAngVDtIzIDwrtl08xzMFU/ZAOBH/F7CuiSdrmkjYIhceI55ssMF/89TU/63MF56JIlDtfCkCUMhO5394jkdep+5MkjUpZNkuTomwfNggjGRejQ4SfIKXTipLHTID08QzYQtpREtUDONRKrojNchBUm/4QPkvRK5184tNa5vz48lhwGQvcok7D4C0mU33kKZX4wv4YsR+AWqZlbztwyStZhWuxzW/iJZyrny9PyoN9X0vdSG2dLPYuNDZ/6vcdGrNEAbGiNb9vgvqa3kJi4VspKbzpGX+4LA8Fmp54qCWItT/l18rJFgvNc1DEOqDAhmTOXsCeEgZjHoGSIBgKup4sydwQjvk1sihK6kMkIHC+J9rqe8i5Je3sqzKgrDAQb8G+WqNpXtxl+4qi7SfqQs84+qIMvgnyAnEYCOSIPGVooeYgGwtGZWrXO/JDIaoUE6cI+/LIyzjGHqxbDDUsfbvUxSBgIdrtM7Psy526jnF84O4bSTKzL3cHNf2pKYOxy3Dpj8e6h++NgZGgGwoslfTDj7pBEBM8BdM4hkxEggRQXrXcjlrHR14aBYPcr5NmJBwzqXU85UNLrPRX2SBe02NBTQ6qUS14k6cO5lHetd0gGApY1oQUSV3LJnpIOzaW8R3qpJf+O83xxAdLKeUyZ4GEg2B4yXkTkBtAd1kvoKIhLPbwICyP+CkkHe23GAnogt9pAEjwJvZehGAj8UHH3kZyYU+j4RXiB0saQhRHgzOEK3NoZIEIL33fWmVtdGAj2O/AGSQfYq5mj4ROSdnDW2Qd1JB9DLHWPzJPlOcPHSO/p9IdiIJxYAP3mzJnkUGDBjiURru5vcYvUybLufW2uh6iKMjFKksYkYSDY7zbP0O9KWtde1TINf5O08kD7hzSFkeRjvAfe5aeT5gvb4/ZNF1PKfUMwEKhnh++glIPB3vIi+lFqPBQMaHNP+5ecu7LBQQEXBZwUY5MwEHx2HCrkk31ULdNylvPvyHl5ldURWqYNM0mjJb3P+FCEi+fcyisp8MKSAG0CD5nwlBLevMnNDvdwSD6W2Bz/6qCvdBU5GjJBxPTq0oExml8YCEbAzhuW5yiJyZ6dSKm9x/AdS0XO/J2Ebplul7RqL+njcPY8abIFQ+w1Psewey19NhCoRT5D0ubdw9L5iCSswBb4hc5H7teAX5W0meOUYbwjHjlIGtQKOIaBUAGkji6BCpmmcJ59Ggid0R9ibOf7iYlGn2TN0oV3FI2leklw1WcD4WWS4MHukxyTSpR+3qdJdzTXrZJB19FwlYbZo4dnpNLCKl4UBkJFoDq6jNwj4uCeQrtyejWMQWVaq88AACAASURBVCCmosyTcuU+CeX3h/dpwjNz7auBQEb6Jc7Welf7S4IRtbI8vMdUckdZo2erXM4HX3VjljAQfHcfl/9VzuRJp0l6/MC9CDR0I+GPlyztnvsmhJqpauhdFVUfDQRceBekDol9Oyiz5wvjIi+wq0eQXf9gSd903iwIbLz58p2XOFVdGAhTIer8gpdIen/noy4+IBS/3r8vjyXyfrqrpEsl3c5DoaEO9meTvhlyfTQQ3i7pNYYb6Tk0cSke4i/sa4yqAlgYdDQxWaPCtV1dQtc7Qhpji83Oxy8MhK5OVPVxIGojcZAcKS/5XEFl3l2tGa8BfScIJ9y0q0Ezj/NuSXtlnkMt9X0zEAgtfCMzW2ItgCteDMf6WyW9r+L1fboM8hI6a3pmGsO10Ovyoo42OAyEjoCsOQxJdJTeeQll1ST/nu+l0FgPXhgIqAjZDEkouYZl8Yq+LKpvBgLJOLxwhioYP6+VRHbyEISvAOJu1Ch7CeVmTxtB2KYKnmEgVEHJ5hpeAmvaDL3gqJDFce77LI+U9DZJG/d5EVPmDuPvOn1ZX58MhDdJ2q8vwLaYJ18DH01r7Xu1w4MkfasFFk1uHVNW9zR8wkCYhpDd/w6V+CmOidQkwvF1Sry+b0J1wptTF94+vZOa4vxGSW9perPnfX3ZDOpdscg93dSe+7CQrn9L2kfSUT0lQyH34CuSaMPqJZ+WREe3kKUIhIGQ9yQQ5vI8//CseJI1tUX39pJ2SaWLY3q2Y8zRN+inbQG0vr8PBgIJKhgHuRtwWO/FpPGpdiBR54s9K4sks/pCR9D40cGs+TtHnaWrCgMh7w5B4ka40Is8ibJpsv5/m3fZU7UTeqSp3XGSbj316mFeQDns/UpPTu+DgUCG/2D6azc864Qdfp9ciLAD9kE+6dysZIiZ3G33OQyEtgi2v5+vepj0vIReJ4/xUtZAD+EEGCdXKax3QoOltL4FmuiPtx7FcIDSDQQsLDqleZYMGcLdemjK9khk3DE1g2o9oNEAkILwEPByG9KD/U6SIKEKWY5AGAj5T8NDnasL6PkCZwAhypKEhE2YZDdy9KiUtP6F5sLzioTFYkMNpRsIfBX2KabmdSD/IemklKMAx0BpAuPZro6T4sGD0RQyF4EwEMo4ER77MHulxxZER0wFE9w1sD3Gh96K5xEyN0jdipSSDQSSzeipHTIZAb4WSGIkI/baQoC6oySaU9FtzUP+KIkk1us8lPVMh8eLaRB97433FYpxqMa9hFwEfof8NnIJHj24DHYeIG9N15jyriPBujgp1UCAjYxynT506yphU0nQO0DSEZJ+lXlC3g1ryE+ht0XIigiEgVDOqeBL8amO04Ft9p2O+mZUkSTJ7/F1jiHGDMvsVCUhBsKyfPAVJaUaCB+URAcsbyGW3eesWgwFHgzwKJDU6C03Ts1qeEh4CDE8qltKz9r2wGIhHWEg5EJ+Rb1QjXvGmklspozQy4tA0iHeAsIJXlUbFrub6x0ArfRuFgtqM2aJBsLKkqAe9ubf5oV6lxTbh8e/RGyq7vUMh8IhzqWRr5R0UNVJdnAd1NS7dzDOUIcIA6GsnT1HEqWPXkIHROswLSWLtLimDbNXUrIFfhhUZ6Sct19L4j3kKX9PYSEMlGKktJcg84GKcu0MCM3u/rehJMqFvA9J18uGQwFvwt5O9bZXSrpn14uYMB4/6HtLQmfIwgiEgVDWyaC64BrHjx88a3z0WFQ08AFH8yFK9W5TFsy1Z0NzLUpDZ1hfc+W/8e5btySa+NIMBLi4z8zgooKw4znzjtUdklUMD0PfBe8ISTD7GrrjaWV6nuPehfdg+qkMA2E6Rp5X8Lz9qqSHOSp9iiSqwbqSVVO+03YphNHVuLnGIYfp9QsQrFEJ8mznSVHG/qjEQOusemF1JRkIWKFXS7qtMzI/k/TgCQx84PM4SR+QdHfneVmoIx55vKR3pRbMXenAtXh5+qLvasxp49DZk0ZQIZMRCAOhvNNBzgy/Fa+SP1qf89JpK/AYvFrSMzM8o9vOfaH7ee7TNfK0CV/sVIHA5eKVTzUzR7y+vGv+bLHoumOWZCDQJztH1i2tWeEUWEwo2eOlCm84iXh9F8qgiE3yFf5NSViubYSHHglYXslJQ+hc1wbvqveGgVAVKd/rzpK0paNKuiNCsFZX+D1zLy9SDAPyDfouhFvwGhB2nVY1QHfMz2RYMO9CwjfZpRQDgVjyjzIkBn5C0g41doHuhJDy0DFwKEJDJbqL8QD5Z8NFebvj+JopkSCqIXxmt4WBYAZtq4F56RKO80rqg/a8jruc/ALmCL+KZ1JlK1Ar3EyMn+d9HU4Kj9/Q/KmTX0XVC16OrFKCgcAcIPvZyRkJ2Ahx5TQhGHprytxdyXnOlurI3IX9kOYy0yzr2fPABefZH+KHyUDjRxSyOAIeD7cgSmp2Cj29CJQDkzsw7Xd9S0mPlkSZ+Z2bLavIu1g/1VV8CNUVCJ94UXuFhGbmVwS/SwkGAlzlWNOec+HlskVKGKp7YGaup3MgHRYhuBiS8GN6T+rPXsWjgFEBtbKHEArBqPulh7IB6AgDodxNpIETjZy8hN80ZcgLCR6D/Qb40cNaL5a0TSqdb4o17wo8rZ7CO4rE7yahoc7m6flSnjRpak/hHfAU2hCTSQyxUBshJkcC0OcdS5fazLfOvdTj8qOAeOkHizxYYG6EJMVDfp7KKNvmTHjMtQQdYSCUsAsLz4H4/gWpeZHHLPkKnl+CTKj0Heljqc8EcQvhh4eYPj4kaZJz1UYIBRGWoATRU3g30hY7m+Q2EJ4siYQzz3lYZIlS3/xmSS91jCt6HRqMKOqDoXH+yLyMX++voG0lneq18AHoCQOh7E18liRKrD2EL1KetyRkU7pNwjU5VV55EB5rRAfPK5Kv39QxiySslFc5M+2yZ/Dz8I7MIp4v5oUWeEkGq4w4FMk3FrJpqsTwrHO2WMekMSEUwVCAfIlcAM9e9zSAojNcSHUEwkCojlWOK4n5k2xLuNJDfpcMgr4TwE3CilA11QnnG4HJRyBcMp7yXUk0+8oiOQ0ErFgSMTyFeNQGxgrBlLXRyWx1Y105hyeZkdicV2kjeJIcGlIdgTAQqmOV68oXSDoyl/KB6IU/h2cDHy/Wycu8sL3zzmhlT/Wcu+QyENBL5js0oF5C/Sv5Auc6Kby5pPen8iL+O6Q5AjBB8pVlQRnbfFbl3xkGQvl7RHUBeTxD4FfxRpv+BZRYv0wS/+0hsP1Cw+8ZmuFdSXK2tfGzAn65DAQ6NVJK4ym5ykZoXY3LC6szF96eOFvowtDiIRBSD4EwEOrhletqEgVxjYdUQ4AXJeFpKuCouvKWj9fkz+liflSL4SFxlRwvLFgJ4R7w5BBow3nQxYZgbdIAin4IQ6Bs7gKTqmPwMLhXShCqek9ctxSBMBD6cRKg9aV0N7wI0/eLcAKJe9Agt61Cm65t4SvgiKAqxJNZEkOIc3J900k3uS+HgUBr0IObTLbFPVCFenssFpou3gSapxBzjLBDtQ3FqKK7Wkh9BMJAqI9ZjjtyNHHKsc42OgkhkK9B46kb2gzU0b14NA/raKyqw/DufG/Vi7u4zttAgJWKWnZPy4t2wLj3XS2vKZtDQ6qXS3ptGApTjzFtWIn5hdRHIAyE+pjluoN+JlQ0hBdh7g5gGLw9vRgpUS9F8IRf6tjennXjCSfxnTbeLuJtINANjKZHnrJZYmr01FlVFz0oYDDjC9mbyrPqHHNeR2nj2h0QneRcQ07dYSDkRL++bkqH71f/tkHewcsQGm9KC2kEV6I83DHpfWb9e0o61AsMTwPhDsl74Olavyg1HSmdeY/WxYdIIkPWq2zQ64y10fMcRyKZNvMs9d4wEErdmYXnRSiUhNwxC3kFlFDzIiy9nXsOhkXCK+SxUdllLp4Ggnc7Z/oIQAFcUmhh2oauJQl6zbtFxcMSqCBG4uvBvbxn2kb15H8PA6HsjeL5C1kSoVeej88fIGV71R3gI45yPppF0dm3L0K4GJe/Z9icihcXT7yXgYD7nMqF2zjuOix/cHH3TfAgQIF6miS8LmMWjDy8QK+TdM6YgWi49jAQGgLncBvewgPTb52Xi9ez2GFptVXwgt06NVYq3du70OJOlgQNvJfQJ4eKBnPuB69DCb3x/l7oSYISmGSOErJdmy6bUAzUzfQ/mN9kpemYfb7vz4lQhl4MZPKS7BqyOAJhIJRzQnAL002RFyFlcp4fS+WgMHcmJJBTmQBPDDkHfRWq0yi/9GpaB05QPh9gDZiHgUCchiYXuM29hKzXfbyUGeuBL4KHytsigWkZ0oQceLhAe0rzmVOSh8p4K3o3fBgI+bYMllh+t4+XtL6kNUbuJZi9EyRj4hU8PRPRkcWpwOVPEr6X8E4lyd3U4+JhIGA1H+SFWiKwIBO4zxbpQnBR/vTcVB7JAydkOQIkNmEsQKPN1wj/XhMABVGS4xkgj2Dz1Eaefymt9qTjdVxqY1X0wiEZ+xMDpE3Hi3CFpLs2Rqf+jbunzpX176x4h4eBAGhrVpxPF5dhxXkaJF3Mue4YtIllneQqhKyIAFY1TGskfH4lJT3hAjS1tgvciPAg2GwKeUKEDHiuPUISXB38FqMCaUW88fZ9R9K7JX3SZjuKGfU1ibPBa0K8W03LYq0NBH44X/RCK8WloeUdS1MfMn7pfX7fcF9OPWUkycKh/tmULU1iVA4e96kT7fCCMBC6AZMwH02VyGuCCXWHlCTWzejDHAXD4HJJfOWeOcwlrrAqvLyEPj3D6YSxzN6xlgYC1jSJZJ4dG7O1xcz8A8BA4GuZB1h8xVTbDB5gF6Q2qhCyUA6LYTkkL0MYCNXOwuyr+P3woCeJ8JnJGHhIGOCVgeT3Q3ycF1efyhUrL3DKhbyDPtbVYBXG+XUySEyeW5YGAi44rCmvFxbGCEkb/6oA6hAvAWcs1w84l9wMAUt+XH9Nfz+Q9Jn0h9ehzxIGQrXdI3/gaakJEMydcBPw5/XsqjbL8q+i3A+yJxpPmbywyodAN00GEpUqHgLOPPcxFDoXKwOBcUkaW7fzGU8ekGxhstnHLmBPbPRFkmjuYbXHQ8cZD8PvJP0mhSS+kXpC4HXI1UWuLuZhIMxFjKTBTVLOAF4BEspWS+GDutjG9UsR4HdCBj8N6OglEaRm0lMlneB4QHg2ca47x97q5UHjEdxMXsKXHmVEfeY9sMAKy3L7ZCh4hnos1lLKmIQh6BEBwyMtXynZ+l76K61yYqwGAh4BPk7WSUlc8IjwfMDDGM2Quvkl/SolgxOew2MQshwBvE88Gzx5EXjnkojdqVgZCJ41oVhNTwjvwaLngocisbFdkqVpte+dHs6eDcY55KFJYhYGBP/ykOCPHy5GbOcW/hSMhmogcH5hkuOhSCgTA4A8HAwA6Mpx78YZ7/4HNJO3c0TK3RlLMngTJJ+YWlN7ncN3pO7ATeY68R6LyZPti1vWK373x/RAMKed7BT5fINtlCheH5rirPlmMi7NhCVI2rosNaHhX/JmYIgkQRL6VP6gl+5K+mggEMMlQfDW6Xzy3yTf4hHg5U9jM0JowTHQ1SmZPg75OV+XRBkf5cMh0xGACZe8gNtNv7STK8hFwDDuNG/KwkCg4chRnSx5+iBYtLjQj59+aVwxDwG8ClidO0laOb64ijgfnGe8DRgPGBP8N3Fd/jCEScDlq40/DI6Z/56UEJbbQJipCOCs8ULnX/7oPcCDk2Zc/M1wChASwBiweC4VscE9mgRnEcr6jybDoC95NyVBDF/NsY7nGdrqTt+9Fj9Ecg9w/XkIsS/PmlOPNXnr4IEN8xsPAh7OIWUiwAMbQ2D2v/w3f3zh8bUCtwNfEDN/JEtZk2nxRQm3BJ5D3P7E//lvkv+IxfKMmfnDYOC/Z/4tE+mYFfk1fDjgNYgwQrvzQNjRq6KB0CYGd2fStYFARytKXbwEPm96FIS0RwBDAZKp3VIv9q7PRvsZxgiBQCBgjQDdUwk/hmHQDdL7SXpTN0NVGuWxiROn0sXTLur6JYCrf7tpSjv637HMyEzuMmbb0dR6PwzuX2g8+RIMCQQCgfEggJcKD/AvxrNk05XeLPEBeXkRqCoh7N6JdGkg4FokvEByhofQ8pc6/5DuEbhDcllHSVj32MaIgUDpCEAlTUOlkG4QeE9qstfNaIuPAn08nmAKBVpLlwYCrv7Xtp5RtQHI+gYEYq4h3SOA8bVn98PGiIFAINADBMgpIX8lpBsEyM0hr4OcHA/prOSxSwMBwhjTzlKzkD1c0os9kB6hDjLMyZinfWlIIBAIjA8Bwra3T8mv41u9zYqpLqDCz0M66/LYlYHwSElf9lh50kFmNi1EQ7pHgLwDMuKjzrx7bGPEQKAvCDw3lej1Zb6lzxNq7wsdJ/kwSee31deVgUA5DFzQHvIlSWRqerPSeaytBB2ePBYlrDfmEAgEAisiAIcGdfwh3SDAu5Z316O6GW7qKF+T9PCpV025oCsD4U+J/aztfKrc/zhJp1W5MK6pjQDnAVIe8jtCAoFAYLwIUCVGM6uQ7hDYRtKp3Q236Ei8k1uzOHZhIMDeRCcvD4mmTLYoQzoF/W9IIBAIlIkAHUapMvIQvkD5Eg3pBoGVUm8Wr/Lx1syKbQ0EyuCwNHuz4G72ebCjbO3knYGEBQa+Bzv27BjspsXCBo0AFMffTDlen0mdE3nmeuQIwa7qlVg36E2ctbhdJZFk7yEYk/AvNCa9amsg8MVJtzqvxkxwLXTajMJjl3qk4xhJJCdZy0yWLWU/L5T09FQB4/VlZL2+GD8QaIMAD/YfpB4zH5FEbfts+bwkugVaC5Vpa1srGdn4vMM64SiogBukV/Q5adyOu62B8E5Je1WYaBeXnC6JGE6IDQIQXNFZkDJHa/lY4nqfr4dqmJdLIgP3tqmxj/VcYvxAIDcCfOERM/6qJDhIzpkyIfKwTnGYNM3B6KYZnXK7BZtkxUd3O+TE0faXBN1zI2ljIFAnT3taD+8BlhBhDLqLhdggQLzxXJuhVxh1Y0nfWEQX7lPa/j4nHe5oyOW0MaHGFQHyfd4s6bhEGV+1Y6JnrtCrJR3kisrwlcExAcmfx7sT45PW6Y2MvDYGwkZTHvJdbjMuGTJqJ7W17VLXWMfaR9KBDosnJEUPjaplqvyIVkldOwlFQAMbXScdNipUdI4ABsHHJZ2Qeh38vuEzjef29yTdv/MZrjgg4cC1avxeHabUexU80+h14dWfgXc1TbhqSxsD4VBJu9fW2OyGl0l6f7Nb466KCJCtjGvfWuB45yXfRmgms64kkirhxOi0xWmbicW9gcAsBH4k6Yvp79KUr9UVQDTk+WRXgy0yDl5icoOiKV63YNNH6OBuh5w42iFNe0E0NRBuldj2+NdaCCvAZV3V/WY9nyGO78meCPkKJCxdCWcYj8SmkrCUN5O0XuQvdAVvjFMRAVy5l6Q8AqoOII+70vDLm5c2nlXragY8fVDoY+yEdIcAuV4k3LfmKqgwpb8mbwXGXi1paiBsK+nkWpqaXxzJic2xq3onsX6P7m3/kEQWLwlZlsKPjoRH/jZIBsRdJDU975ZzjbH7hwAvTUoNacBDuS5JhWenHiZeq+EFQxybZF5rgeeGaqOQbhE4Q9JW3Q45cTTe2bVJmpo+MCm92dlpYbiQATLEDoGjJ1QVdK0RBkwysHMIBsIzJD059btf2enhmmOtobNbBGhexh/5M3Q6/JRjqdpiK8F1vEe3S11wNLy3kPxQ1RDSHQJevDPM+EOSdqs79SYGAi4tfiwe4QUs9HvXXVRcXxsBEp4eUPuu+je8RNIH699mdgdJQvA+kBOxZgpLcL6b/C7MJhkDuyGAZ4CXIeECkvPgBcGz5lW3XnehGLkkOnqcV+rpg2W17g5Nv/4nTtT216VcklqJ/k0OFgQdEHV4CDXBJHOE2CFA/gEPQI+SG9z9F9stpdXIN0strjF8yWV4WvJ2eMQIW008bm6FAA9OXK+wFJLpTbz2BkmEw/oghDo8suEfk5oN9QGTPs3RM9n/8XX5M5oYCJ59rddPiT992vC+zZWveo8Kkda0n5mAxUDgAUzuxDqSHpo6l5IY2eT3k2kZo1aLZ4CEwQtS8iAVBSSI0dYcb2ifhfyHzR0WEN0dbUD2pAsglFwrNaDJA44f2j1tsJozKsk/GzroGbsK8gKIhVkLlvKe1kocx4cmGiOB3wLENXTApF4calr+f/QpCfFDgLDAVYmi+Pvpv6k153nF/x/PwBCF8BjcCtYC0Q4hjUaEO9aT6/n4VL9Qtm0tV6f8q8p66hoIMOBhhXvIqxzrRD3WU6oOrxjYlinTu1QcupwX4QoMBgwF/vhvjIjV0r+U7UJhG1IdAWjA+ernpY9bHX55zi4PPYwA8pXGWKsPRTql4CQRWkt4dG0Qhq3yXTZDrzDqJpIurKqrroFAd6/nVR285XWwhNGwJMQOAR4qlBx69F+A/ZCHe8hSBDAiSIzEeCB0QTIuiWDQouKd4A8685l/PXJEPPeGZCli/XzZz/zxf1OrzUv/x5IuS/X3vPz7khPgieGMLngX6IxqLXgrPMqhrddR2vi86zjrHkIF4i5VFdU1EC6XdN+qg7e4jkQ2EtpCbBHA2MPos5Zr0teztZ6hjk+4Au8DdON4Ivib+W/KNyHNwSNBBQaGxMy/GBv0tLAUvtp5qfPCpwJg5l+++Mk74Ut/5g8DkT/+b+L/QX7Wzc5QwvaiboZadJRjnbq9OiylOBXfTQRv1hPjo7syRXcdAwFX1vUOzF0A1DXbnjXofR2f7nEwD1rL6536PFivo/Tx+T3P/qMJ0HbGk/60pGcnxkCSAWf+jNXG8LMQoMIASmdrwdsYVT02KHt9rJGrg1eyUjiujoHwGklvt8FmhVFxt+JWDLFDgK9MvuIoc7QUXhjsJ3HiEF8EyDx/prFKSIPoCxCSDwFChPAh4DGyFmjMqQIJ6RYBwo1wb3jI3lVzHqoaCFzH5D2a4sBWxgsl3I+2R4UYOCVeeIYsBfY1XOC4nEN8EQgDwRfvnNqgpId11lp2lXSEtZIRjk8YkWobQofWQl8N+mtM7ahb1UAgjomF6sGeGAfQ+ngsHd+r/hYvBTHzWgxePhAMXksYCIPf4mULfIOkAxyWCw/OCxz0jFHFi52YZkkVWKVKmKGqgfBASd9x2DG8BiRdUc4UYovAh50asLxF0httlxKjT0AgDITxHA0ak33ZYblk21N1E9I9ApQ/U8Lr0aGTRMUfTltCVQPhRElPmTZYB/87bmjc0dEUpAMwFxmCTHcyzymjsxRcWLjM8CKE+CMQBoI/5rk0UrJMyNC6aoXfNIRJ1h1Zc+GYUy+5JHBaeHjqP1alQV8VA4EY9d+cUHunJJIhQ2wRIDHRw0vDYceVFZIHgTAQ8uCeS6tX+2AqY+hdEdI9Ah9o0nWxwTQw9Hi3L1rNUMVAgAnOIwOdGDWWaSSzNdjtmrdACexBQgVvBrpC8iAQBkIe3HNpfbmk9zgoJzzpwbvgsJTiVPBB9VunPi/3SKRkE0GoYiA8SdLnHGAk9uKRwemwlOJV7CgJF5O1HOmU52C9jr6OHwZCX3eu2bxp2kTzJms5z4k/xXodpY5PSBZiNGvh3f6FxZRUMRBo7UyLZ2v5kiQIP0LsEfDKKdlK0pn2ywkNExAIA2FcR4OOo7RutxZeYCSTh9gg4BUq4t3+5DYGAskS9Ev36Ez3NEm8uEJsESARhj2FTctSyFuB/hfmrpA8CISBkAf3nFrpYQGPjKVE8rElukvZT4+3VbFkdPIPYMacmGM4zYNAAxAagVgLGfVMNGrlrZFe2hyILnjW8j2nFqbW6+jz+GEg9Hn3ms39bZJe2+zWWndRs394rTvi4qoI8EFOlYh1lRnzgcKAPhALyjQDYSdJR1ddVYvrzpf0sBb3x63VEXiUk9sfbxBeoZB8CISBkA/7XJo3lnSBg/JTJW3roGesKr6RyOys1/8cSfRsaWQgfNKJZ/29kl5hjUSMvwSBl0k6zAELepwf5KAnVExGIAyE8Z0O2qrTLttaoOv16OxrvY5Sx3+fpJc6TI723bTxrm0g4F2gjt2jexfZt3QWDLFHgOY6z7BXow0lfdtBT6gIAyHOwHIEIEy6wQEQqPchtQuxQeARks62GXrOqOSjUVq5YF+GxUIM60q6xGGCGCFk30YymwPYkn7pkIEMl8Xto+GWz4YuoiU8CNm3IMsEviXpQcaaocWne6QXiZ7xcoobnjwEyOzgBrKWiR06FzMQXigJQgxroQ6TeswQewSorfWgPcYbhFcoJC8CYSDkxT+X9j0kHeKgHE/kpx30jFXFKZIe57B4mm/RhGsFWcxAgOTGo2vXXpLe7QBCqJAeLQm+CWshfra7tZIYfyoCYSBMhWiQF/AhAPHctCT0tosnXLl920Hi/okIvF4Sze6s5YOSXlLXQLhY0vrWM0vVC1QxhNgjsKckEkKtJVp2WyNcbfwwEKrhNLSraNhEbNm6TI5SPFzgC8avhwZqhvV45SFAZfCQOgYCB4xEF+u2k+QdcIije6PP6fNq8UypFWU6IXkRCAMhL/65tPPcJpRIUzZLgWiHXKO/WioZ8dg0U7o+53t4kgvKyxUd9Mq+p5/cgM2MVfI1AUtjJC8ZA11h+DAQKoA00EuoINrAeG0kKt45NRcyVjXa4XlH8j62FnScNV/JJAPhrZJeZz2jxH3g4fJ2WEovVNAlzLo0icoXj9BULwDPPMkwEDJvQEb1+0l6k4P++zt1hnVYSpEq4Ac62GFmb5e0T1UD4TRJWztMagtJ5zroCRVLO2X+wgEI6FehYQ3Jj0AYCPn3INcM8B548JCQjExScogNAo+U9GWboeeMerqkbaoaCFdIWtNhUnQE8yi7c1hK8SroyEn3LmuZWDJjrTjGXwGBMBDGeyjwDpNHRhzbUk6W9ARLBSMf24sZc48WdQAAIABJREFU84eS1q5iINDtj+ZJNzPeGNqSEr8K8UEAdyNuR2sh89ajJ731OoYwfhgIQ9jF5mu4StI9mt9e6U6S6G4bjfYqYdXkIgw9QsOwHVoKxiTdd8krWSYL5SCQxOZBe/whSbtZrjjGnoPAZ5yaJ93HqVtkbO90BMJAmI7RkK+4cFL5WseLJq8J6uUQGwQI21I6bi2bSOLMLGogQMwAQYO1PFbSGdZKYvxlCJwnaVMHPOCC/7uDnlAxHYEwEKZjNOQrvJrtrSXp8iEDmXltWzm9K/ef72VeyIMAadFDHQCJL00HkGepuFLSPY1V0lec/uIhZSAQBkIZ+5BrFl6dW/E68wESYoPAvSX92GboOaPSJnzOu38hA+GnktZwmAwMXH900BMqllKuwktgnVcSFMtlnbYwEMraD+/Z0LCJxk3WspOkj1krGfH4kFF5hHD4iLzXbJwXMhCg6LRu8bxoi8kRHwSrpdO33cMF+ExJx1stIsatjUAYCLUhG9QNdAQkiTA+DPq9rTeSBK31rYyXQWflOcmQ8w0EaI+pYGBClvJxSc+zVBBjz0HguZKOccBkHUmXOegJFdUQCAOhGk5DvgrXNC5qSyG8YM3Qajn/Pox9nKRnGU90hdYH8w0EWkvSYtJaqMk/yVpJjL8MgUOduiveXdLPA/diEAgDoZityDYR6HO3NNaOl4ISuWjaZAe0F48NZ+XsmWXMNxA8XiT/Ta6S4Oq3O0zzR/ZKPI28Er89raIpDIQqKA37mqMkPd9hiXeSdK2DnrGqoDoMQ8zauw+t86smGQgeDIoskjgHncBCfBCAJet+xqr4eoBkaw7RhrHOGH5xBMJAiBNCTx1661jLhk7UztbrKHV8OiyTqGidh/AjSeSsLZHZHgQe7n92oOa8RhIUy3gSQnwQoAcDvRgs5WKH7nGW8x/i2GEgDHFX663paZIgSbMW6JahXQ6xQcCrhTccNjBjLvmAn20gEEP6XfoKtFni0lGjVt4S3YXHppyUTbcUunLSeSykHATCQChnL3LNhMThSx2Uv0jShx30jFkFCeB0z7SUf6WOvzgL5hgId0yNk6xjHOQ57Gm5whh7DgIYgViDlDxZCl8qJ1oqiLFrIxAGQm3IBncDzZoI6/IFailvk0Q4I8QOgfdLeond8EtGJkSMh39JPslsDwJ0mT8wVs7wT5L0BQc9oWIpApBeQX5lLYQwfmWtJMavhUAYCLXgGuzFHk2b4D+BByXEDgGvSoZlLMezDYQdHdiwSGSDhGmJ+yLEBYHtHMiLcEsRoooeDC5bWllJGAiVoRr0hR6ljt+QtPGgUcy/OBIUeXcuRHDY5eyeLYk+HnMUfcChuyIMitBGhvgh8A5Jexurg1yLjm5RmWIMdM3hw0CoCdhALz9C0i7GayP5fDVjHTH80vYE1vlk2AIvnW8gfMeh0c6cEorYbRcEPL4eKL/h4QATV0g5CISBUM5e5JzJayS93XgCeIf5wr3BWM/Yh/folbSskGDGVUECG8RF1ols4YbyP96/TV/3lpp/ncoog0nNEuX6Y4eBUB+zId6xgyTo7a1lbUlwroTYIfBNSQ+2G37JyHzokdz6nxkDAfcwLxJrITmRJMUQHwS8uC0ukbS+z5JCSw0EwkCoAdaAL32MpC86rA89X3LQM2YVtCh4vAMApAJcN2MgkLWI+99aDpT0emslMf4yBGi+RYcu625ux0qiIVRIWQiEgVDWfuSaDcY7RGbWsrOko62VjHx83qH7OGBA9dtVMwbCBk40mdtL+pTD4kLFUgSoGKGeFU+CpXBgrWOclvMf6thhIAx1Z+uti/wgwoDW8kZJb7FWMvLxeYcuqTAwlgdCajhjIGwh6SvGChkeFigPrgWHpfRCxarpwWBNkhLcFmUehzAQytwX71mRW0YpsrV80IHIx3oNpY/v5Q3CJjh3xkB4jqRPGCMDQxMNJ6IHgzHQs4aHEYs+DNZ1s8uINfyWFpoqIBAGQgWQRnIJbdjvZrzWIEsyBjiFiykosH6mk9j6iRklb5K0n/HafiPpzsY6Yvi5CNDB0TqrGMOPHIfo4lje6QsDobw9yTUjPMR8FVrKmZK2slQQYy9BgLAx3mFLOUDSvjMGwnGSnmWpLTUMWc9YRww/F4FtHTqsQZIEi2JIeQiEgVDenuSa0VGSnm+s/FsOJXjGS+jF8DTfogmXpRBR2GHGQPCorYSw59GWK4qxV0BgD0mHGOMSniFjgFsMHwZCC/AGdquHlxgSn3sPDLcSl0MpqfW79KuSNp8xEDxcFjysrL0UJW5mzjkdJOmVxhP4saQ1jXXE8M0QCAOhGW5DvAvvAV4ESwkqfUt0l4/t4fEnd211DASvDFe+ZF/ug19oSQh8RhJtmC0lSJIs0W03dhgI7fAb0t3kBpxhvCDykCipDkZVW6APk/QyWxVL9vAmGAgkOyzp/Wwse0l6t7GOGH4uAh6howskPTSALxKBMBCK3JYsk9pU0nkOmu/k9D5xWEqxKiAb9OCbuCMGwn0lXe4AxfOc+MAdltIbFR6ho7MlbdkbRMY10TAQxrXfi60W4hsa8lkLpHserI3W6yh5fI9wEetfCwOBHt58BVrL1k584Nbr6Mv4N0rkKPxrKVH7bIluu7HDQGiH35Du9ih5Bq9tJJ0+JOAKXAvv0tMc5rUJBsJjnTY0LEuHHZ2lYiWn1quHStrTd2mhrSICYSBUBGoEl60u6WqHde4o6RgHPWNW4cWmuBUGwjMl8SCxFlj9PPjArdfRl/FXTo2arOcb/OvWCDcfPwyE5tgN7U6vjr2vknTw0MArbD0QDv7KYU5Pw0B4gaQjjZWREQnNMn2mQ3wQ8GrQspukD/ksKbTURCAMhJqADfjyW0v6s8P63iHptQ56xqwC5tq/OwCwEwaCB5kOLYdXcVhQqFiOwD1o1+kAyNMlneCgJ1TURyAMhPqYDfUOyg//6bA4uBb46AyxReB6Sbe0VaE9MBDowQDLlqUEw5YluguPDXnRFQ5qH+nUCdRhKYNTEQbC4La01YJukERukqWc6MC9Yjn/voz9M0l3N57smzEQiBe9wlgR5TUPMtYRw89F4AGSvucASiSfOoDcUEUYCA2BG+hteBTxLFpKNGyyRHf52N+WxLPXUg7FQPBo4hG18pbbuPDYHB4OkbXcUxLWbEh5CISBUN6e5JzRRZI2NJ7AuQ5dI42X0IvhPfoxHIWBgEvoKcaQUL3gweJlvIxeDU8Vw6McZnySpH846AkV9RHYRNLd6t9W6w442z14VGpNKi5eEAHaPVu3Cf69JD4IQ2wReJgkqhks5XgMBA9LxHIRMXYgEAgEAoFAIBAIdIvAKRgI5weXfreoxmiBQCAQCAQCgUDPETgHA+G7ktbr+UJi+oFAIBAIBAKBQCDQHQLfwkCgFI6SuJBAIBAIBAKBQCAQCARA4IcYCB71lAF3IBAIBAKBQCAQCPQHgZ9hIPxGEj28QwKBQCAQCAQCgUAgEACBX2IgXCfpdoFHIBAIBAKBQCAQCAQCCYFrMRA8OJ0D8UAgEAgEAoFAIBDoDwLXYSDQFYruUCGBQCAQCAQCgUAgEAiAwPUYCP+SdOPAIxAIBAKBQCAQCAQCgYTAPzAQ/iPpRgFJIBAIBAKBQCAQCAQCCYH/hoEQZyEQCAQCgUAgEAgE5iOwxED4ryT+DQkEAoFAIBAIBAKBQAAEwoMQ5yAQCAQCgUAgEAgEVkDgP1HFEKciEAgEAoFAIBAIBOYj8K/gQYhDEQgEAoFAIBAIBALzEfhbMCnGoQgEAoFAIBAIBAKB+Qgs4UG4VtKqgU0gEAgEAoFAIBAIBAIJgSVMir+UdJeAJBAIBAKBQCAQCAQCgYTAb6Ldc5yFQCAQCAQCgUAgEJiPwJJ2zz+UdL/AJhAIBAKBQCAQCAQCgYTAFRgIF0naMCAJBAKBQCAQCAQCgUAgIXAxBsI5kjYPSAKBQCAQCAQCgUAgEEgInIeBcKqkbQKSQCAQCAQCgUAgEAgEEgJnYCAcL2k7Y0iolPiqsY4Yfi4CK0t6rAMoX5B0g4OeUFEfgU0l3b3+bbXuuFrS+bXuiItzIfBwSXc1Vv57SV8y1hHDL/X6W1cfnoiBcJSk5xsjfqakrYx1xPBzEVhX0iUOoNxf0g8c9ISK+gj8r6Rn1r+t1h2fkrR9rTvi4lwInC3pEcbKvy4JwzTEFoGvSNrCVoWOwkA4VNLuxoq+HYmQxgivODyVKVSoWMvD4gvSGuLG44eB0Bi6Qd54qaR1jFfGi+uRxjpieOliSesbA3EwBsKbJe1rrOhnku5prCOGn4vAGpJ+6gDK4yWd4qAnVNRHIAyE+pgN+Y5fS1rNeIGnR06bMcJLh79K0j2MNe2LgbCHpEOMFf1F0m2MdcTwcxEg1vgLB1AIT33UQU+oqI9AGAj1MRvqHTzr/y3pRsYLjJCTMcBp+D9Kuq2xqj04NDtJOtpY0f9JWknSP4z1xPDLEVhF0u8cANlb0rsc9ISK+giEgVAfs6HecXNJf3NY3AclvcRBz5hV3FTS3yXx/raUnVHwVEknWGpJY5NxiYsrxAeBW0nCc2MtGAcYCSHlIRAGQnl7kmtGfG3y1Wkt+0vaz1rJyMe/m6SfO2DwDAwEqgvOcFC2niSSZEJ8ELixpH85qPpY8kI5qAoVNREIA6EmYAO+/E6SfuOwPhLe3+egZ8wqHiTpWw4APBYDYWNJFzgo21rSFx30hIrlCOBBwJNgKewpextSHgJhIJS3J7lmRJL4lQ7KKXklDyHEDgGIDSE4tJaHYCCsLen71poS10IkszkAPUsF/ARrGas8T9Jmxjpi+GYIhIHQDLch3gVfyWUOC9tSEnwLIXYIPM8pMfy+GAh3lHSN3VqWjfx6SQc66AkVyxE4zeHrPjguyj1xYSCUuzfeM6MhH435rIUPTg/+Fet1lDw+OV/vcJjgqhgIxKr/6ZAReVgqqXRYV6hICBwuaVdjNHgY8FAIKQ+BMBDK25NcM4Jm+VwH5SRD/tlBz5hVQEsAPYGlUHl405kyCerlrTm6Pynp2ZYrirFXQGAfB68NZ2f1wL5IBMJAKHJbskzqiZI+b6yZMnbKKUNsEfD4XRNVWG3GQPiaJChzLYUGHo+xVBBjr4AACUMYZpZynaTbWyqIsRsj4PEgCWKcxtvjeuNLHaoLrpVEtUSILQJnSSLXw1IulLTJjIHwCUnPsdSWShwpdQzxQ8Aj7kh46mZ+SwpNNRAIA6EGWAO/9J2S9jJe4+UOSdHGS+jF8B49NbAJdpgxEA6Q9AZjaH6bEiKN1cTwsxCAUIN2vNaMW6s6sTbG5tZDIAyEengN+Wo8Pc8wXmB0cjQGOA2P+5/iAkuB7Gr/mRfHjpIgvLEUkh740vQg77FcR5/Gxt33Kwf+dVrIntMnYEYy1zAQRrLRFZb5TUkPrnBdm0uozd+2zQBx71QE/icVFVj31HiWpP+dMRDoK02bTmsJNkVrhOeOT24A1iaVKpYC9zoc7CFlIRAGQln7kXM2f5C0svEElriljXWMfXjadXswEmMTnDtjIDxQ0ncckH+mpOMd9ISKpQjAovh7ylWMAYFaFYrVkLIQCAOhrP3INZtbSrreQfl7JL3SQc+YVZAriCFmLRtIunjGQFhD0k+tNUp6i6Q3OugJFUsRIKRDgxbr0iPqq7E4Q8pCIAyEsvYj12y8aJZfLemgXIsciV4Ikjya490bm2DGQMAVzZemtZwkiXrcEB8E2F9IS6z7McCFcHdJ5JmElINAGAjl7EXOmXj124k+DPa7fLJTnscqkv4wYyAQo6a/NAkQlgLV50aWCmLsFRC4WNL6xrhQoXJnSf8x1hPD10MgDIR6eA316idI+oLD4mBrhFMnxA6Bbzi8QyldvwXP89nlb9+T9AC7dS0ZmTAGrosQPwSOlPQCY3V/kkSpY1SoGANdc/gwEGoCNtDLd5F0hMPa7pHKqh1UjVbFjx3eoVS8PASEZxsIZKG/2Bh24uHWmbTGS+jd8LtJ+oDxrPE+3U4SVKsh5SAQBkI5e5FzJvs75H7hPSQZ+r85FzoC3bxD6XdhKcv6Js02EOiTcKyl1hSjvo1TRq3xUnozPLXPWISWQu5B7Kslws3GDgOhGW5Du4vnunUfnCsl3WtowBW2Hj6uyRW0Jr577owtMFsRrn/cF9ZCPIxEixAfBLDq+cK3PlSbS/qqz5JCS0UEwkCoCNTAL4NXf4nL2FDg0Xmk4fgxtPRUSSc4AHE/SVegZ/ZLgxjyrx0SFaNm3mGH56mgBppaaEuhc+TbLRXE2LURCAOhNmSDvIEk4jsYr+xoSTsb6xj78Lw7abplKYSI7pII9uYYCLiIfyfpJpbaJV0mCTaoED8EfuPQZe2Lkrb2W1JoqoBAGAgVQBr4JV4l7PTyeevAscy9PI8mTSSaY0xSHj/HQMAVTTa6NalOlMT5H7OfOMQH8VJgZAYXgv/+TtIYBkI5e5FrJg+VdL6Dcvr5HOOgZ6wqoCCgr451k6a/pSTIJRVp8+PSHiUUvEggYaDWMsQHAQ8uBFYCIdNffZYUWiogEAZCBZAGfslOknD/W8ujJZ1lrWTE4/MBT4KiNendDyTdfwbn+QbCeyXtabwJlMPcWhKWSogPAh5ZzKwEsiTCGSFlIBAGQhn7kHMWB0oiP8haeKnwcgmxQQDior84dOad009jvoGwpZMVGJUMNodo0qgYfRh/1rIs+9VaUYxfCYEwECrBNOiLPiXpGQ4rJLzICyzEBoGnSDrRZug5oz5G0pdm/j/zDQTcGDc4VDLwRUutZYgPAl5xyEdJ+rLPkkJLBQTCQKgA0sAv+bqkTYzXSGz8rsY6xj68hxeYCgaq3SiLXyIL1cYT5yDz1VLIQ4ANKli3LFFePjaJp2Bu3WtjX0kH+CwptFRAIAyECiAN/BJK11czXiO8NniFQ2wQuJGk61ISuI2GpaOiY867fyEDgX4JtH+2FibChEJ8EPAodTxD0mN9lhNaKiAQBkIFkAZ8CbleVKZZk6TxUcDHQYgNAtDYe7wrV+iVtNDBuUAS7UGt5T6SKL8L8UHg25I2MFZFeIqHUniGjIGuOHwYCBWBGuhlW0nCaLeWJ0v6vLWSEY/Pu/JHDus/T9Jms/UsZCBgDUJ6YS1RFmON8NzxT5H0OAeVxCKJSYbkRyAMhPx7kHMGb5K0n8MENpJ0kYOesarY1qk9wZslcWaWyUIGAgktJLZYy+EO3SOt19Cn8T1KWMEDznfr5lB9wj3nXMNAyIl+ft2nObGbEpK+Kv9yBzuDIyW9wGF1JLMTQVjUQCCRjXKVlYwndG1KngnmPWOg0/BehClPd2oo4oNav7WEgdDv/Ws7ey+CtChxbLtTk+/nI/4aSfRKshQqFwgP/3uagcD/DuHFWpazSWOvLukXDnpCxdL+F3B5Wwt87B4hKut1DGH8MBCGsIvN1+BRwXC1pHs0n2LcOQUBQrYe78jLF3rnT8puPVXSNg5bBzHT2Q56QsXSEkcPzxA8CPAhhORHIAyE/HuQawZ4gPm9W5c2f0TSLrkWOQK9tND24JYhHLVCjtokA4G2va9xAP8VTgx/DkvphYrvSlrPeKbwLVCWA6V2SF4EwkDIi39O7V6JbbA0fjrnQgeuey9J73RY44KlqpMMBOgWad9rLac7eSqs19GX8b1oV4NyuYwTEQZCGfuQYxYkge9qrJj8sbs7ucCNl1Ls8HgP8CJYy4Le/EkGghflMgkRdKf6h/XqY/wlCEBmQimLtcRXhTXC1cYPA6EaTkO7iuf6lQ65ATy/7yTpD0MDsJD1wIBLd1yYFC2FfSQkNSdBEYWLMWxRqvZgy1mlsR8h6RwHPaFCeqpThcFbJL0xAM+OQBgI2bcgywRunDLfrSnz+bAjnLiMuz/LaoerdAtJX3FYHiR6Gy6kZzED4YNOPAWvk/Q2BxBCxdLKFI+WrF+Q9KQAPDsCYSBk34IsE+DL84+SbmasHS/FvYx1jHl48gDJB7SWIyaFoxYzECBmgKDBWmD4e7y1khh/CQJ8WfDgoGOXpfw8xSYtdcTY0xEIA2E6RkO8Yn1JcCBYy3skvdJayYjH92K/5V1/1EI4L2YgkO1O1ru1EL+6Y2S9W8O8bHzKSgnrWMvdJP3SWkmMvygCYSCM84AcLIkKMWtZgXnPWuGIxr+JJMgECeFYywMkfb+ugUBiBC9v2jJbC7GWc62VxPhLENjfKT9gB0mfCMyzIhAGQlb4syjnow+CJJIHLYX8A0IZITYIUFVwls3Qc0b93WIsjdPagB4r6dkOk3yfpN0d9IQK6YlOnddwWXnwh8eeTkYgDITxnQ6v1sC0j7/z+OB1W/Fhkl7moO0YSTtO0jPNQHiuJAawlm84tZi2XkcfxvcKHdHwa9M+ADLgOYaBMODNnbC0e0v6scOycUnjmg6xQYCmSRvbDD1n1EU9vdMMhAdK+o7DJG+QRMOPYN+zB5uGHH+aUuLaxSx+m3JLuhgrxmiGQBgIzXDr811UD33OYQFHS9rZQc8YVUCPzTPaOpkcbClvpMxxQZlmIECeQNY7xEnWEuQ61ggvH9+L44KySpqAhORBIAyEPLjn1Erez3McJkCo8iQHPWNUsb2kTzos/J+SVpbEB3ojA4GbPq+lcWtrgdp5a2slMf4SBF4vCTIja4EsyUOP9Tr6On4YCH3duWbzpoz598kb22yEanf9KyWv/63a5XFVTQS86JU/I2m7xeY2zYPAvV7se2Te3qUmkHF5MwRgyMSLYC0XSdrIWkmMPxGBMBDGdTjuI+lHDksmx2FNBz1jVeHRphtsaehF5+aJUsVAoNf3VQ479d9UbhG83vZgw1EAmZG1hNFnjfDi44eBkBd/b+0Qznm4/cPba7ez0GOTv2Xdf4EV8G6/uq2BQP6BVzOlKHe0O3izR6Z+2cM9SPMPzg9d30L8EQgDwR/znBqh5YWe11oWbA1srXQk479X0p5Oa4WKmzyEiVLFg8DNH5dEOYS1XC8JC4oYV4gtAl6MivBoeCTc2KLVz9HDQOjnvjWd9SWS1m16c437Npf01RrXx6XVEIA9kRwSKs2shWfyVI6jqgbC2pIucyiNo8wR8g1cLCG2CDxL0nG2KpaMHnkIDiBPUBEGQj7svTXz3ITavOozven8aD/MR9yiX55NBx/5fbQcICxrHV7Ao4shyTt9Ual6mHATY9ncatqAHfzvL3RqEtXBVHs9BLwT7CmZz5ZCeIpSGo+QhuU6+jh2GAh93LVmc366pE83u7XWXV+T9PBad8TFVRF4qSTC7NbyF0l3qGLkVTUQuO4KSWTJWgvJc2sEaZI1zPJqBkLyKdUp15ivKBTMRyAMhPGcCa/Y9bsl7TUeWN1WCjkSCYMelXxw0xAVmJobVtVAACWv3tToooTGgy7UbfcLVMTec1A8ypWotaXmNsQXgTAQfPHOqY1QHqx41oKn4gRrJSMc34siG2hfJYmOn1OljoHAFyeMS9YuaSb9fEkfnTr7uKAtAm+WtG/bQSrcH27JCiAZXBIGggGoBQ5JCM+rPDzauNscABomfcxm6DmjUll2i6qFAHUMBLTQoAPXhLV8VxJ9IEJsEbi7pJ/ZqlgyOq4sEpug7Q7xQyAMBD+sc2rig4ruqdaCxxH69JDuEbhU0jrdD7vCiLX2sK6BcISkXRwWgQoMkR866RqzGtq2WveOB99Fm4KMeQMM1x4GgiG4BQ1NciKuf2uJ/AMbhDEMMBA8BEPyBVUV1TUQoM2lNbOHvFrSQR6KRq7Dq60o5B+Hjhxr7+WHgeCNeB59JJB75BLB1HhKniUOWitJn+90WmGtD7W6BgJrwCWNa9paIP1Y31pJjK93SNrbAYeLJW3goCdULEcgDIThnway3qn8sq6dB0mqyzxo94e/a3NXyLPR4133U0kkQ1aWJgYCfcB3qqyh3YU0FfpWuyHi7ikIPMgR49Ul/SJ2xA2BMBDcoM6myCvRmFAkxsjU0rhsSPRTMR9N33aa+kfqpgg0MRDoAHWy04IOk7SHk64xq/HqHhbljr6nLAwEX7xzaIMN7/4Oig9MbeIdVI1KBe+4lzmteGr3xvnzaGIg4Mr6XWLHs15XtBW1Rnjp+F+Q9AQHVSS57uqgJ1QsRSAMhOGfhOsk3c5hmbjACfuGdIvAlZLu2e2QC472p1RJBnFdZWliIDD4hyS9qLKW5hfiznqMpDObDxF3VkCAhNB3Vbiu7SX02IBvPKQbBPj9UgO/SvqXUlL+Zv5v+m1Yl6VRaUTjF+rwF/rjBRZu6W72e/4om0j6us3QK4zK7zZ65HQL9jaSTu12yImjNfo4a2ogPM4xmzV6j9ufoAdI+p69miUa4HGHOClkLgJ0cKM/O0Q0/Eu8lz8MAPpm0AeFP667ZfpbyaE5T9t9wjigDwdNfviDB56urfz9WRIGxK/SHwnQ5KjwL9eFLI4AH06PcgCJECTnstbXp8O8+q7iDElbOS0CY+T0urqaGgg8pEhagZHJWiDXWVUSDFAhNghwDn6SspRtNCwfdWy11ITkVkuVPyRpUgHEH933+CqDg4L/vq018D0bH5coLyZ6eFyb/huu+pk/Mvd5Bo31pYVxiHF1M4d9jZLz7kGGkRiPjEd4CGObZwwGei1paiCghK5TdJ/ykMrc0R6TGagOOAp2d1gbVSlUpwxFZtz8GAH8CHnh49ZfLyWP3UsSjVhCukeAjwZiuDC8Eh//wSxjAuNhyOENvEyUrVmXN4IxISu8PSHdIfCKqv0QOlBJ3wXeobWljYHgSZrEVwTu1rF+LdTe2AY3PFnSZxvcV/cW9pCXad/imXyp4ernSx9362aSiAHzxwM0pDwESKaGCOzCFNYifIFngpcdbcj7LPtLeqPDAsgrwegND253YGPUEVbzYLBl1ryraeZVW9oYCDdPcUKP5k3/Se5Yr4YktYEcwA18/XJoPYQH21s8FDXQwW+CM80fNcpUdzzJqQdJg+nFfGZUAAAgAElEQVTGLQ0RwNvweUknpTp0njG8BPuQUMnZxG3MM9havippc2slIxuf0CLhM2vvD7Byrsld+nsTjNsYCOjzsmLRFcmKTXa43j3nS3povVsaXf1NSQ9pdKfNTXgAMAKeIgniqJkkQA/j12ZFMWodBDAMSJqkWy0hsM8l4+H3dQZxvJY+NYRVPOSJyYjy0DUWHV7JpeD5VklvaApsWwPhrilpyMMSYo24pgk3hNgg4NUVjocx7vocX2v3kUQVDtnfUMcSuqI0sO1vwWZHYtRcCHA2MRD40iPP4axUkgY3S27ZTdIHHCbRqHbeYV59VkFYgfwYD8F7QEJ0Y89w24fiTdJiecB6CNwLH/ZQNFIdnl8mO0uCtttSMGDJEXhYShqkhXjkC1giPvyxMRrgzqcl/XmJhwAjwkt4ZsOeyG/VWkrz9Fmv12P8Fzq+w/iYJl+qcf5IWwMBQGn/DAmDh5B0hEVEXXVI9wiQiAfGxKysBRcpbU678iJQKQCfA3kDcC2QRHg/60XE+IFAaksPtwfxeowHOEWsEqo9jXhCyPvFDneGAKFLOD68PlJ2lHRMm9l3YSCgH1cULmMP2TrlI3joGqOO90h6ucPCqcnF8/TPhrr4sWEs8sCkAoP8AQ/DpuF047YRIUAI7cSUx0AyJNwNtWvQJ+AFbz/8/daCe5rOf7zQQrpBgHbZJMV6CO/k1hwLXRkI56avNo+FEwuEfaqrL0+POfdJBy9dWrp2dTYWW3sddi/CWRx4vA57SqLxSCQR9ulkjXeuuHhpcAfXyKXpg+pfDeEgrLFpw3vr3EYIhZBcSDcI8Dw9W9IW3Qw3dRQ8WnhSW0lXLwFPTnAWTAY88bGQ7hGAHROCmZt2P/QKI2KIkCi4mPCQ2jt5CZhTkA45bEyoMEOAL3O8ZngY3lmzARKkWyRJdvXcXmyRGDMY4iHdIODJG8SMCbFiTLaSLg8aTVu8Yr5HSXpBq5XHzYsh8GVJj3SCCP6F2Vm90Gqzt89OCTZ4Dbo8p07LCjWBwFQE8IJCJQ9t9HGSPpJygCbduK+kN08dtZsL+NLFMxzSDQJHOr6zCGt10gK8ywfvO9KXXjdwLj4K8TysaTjaQ7pHwNPafXqqQX9G4mDAyPQqm+0euRgxEGiOAImNl6fKiE+lLrazkx1hhdy4+fCV76QsDirnxtnvlTWN40LK8+l149G7CEQPkIQx2Vq6NBD4EoQb3IPdi4UfJIkmIiE2CFDN4JFtywMwDAKbPYxR+40AdOTkXJG/gIcWA8Ej7ybCC92eG68+N8wasi/Ctp18PHdpIDC5/5X0zG6xnTgaVi5ANM2Cd5pmb9VQskUcKyQQCATGhcBjJdGKOKQ9ApSOk2uFF8FDeAc/qytFXRsIHKzaPadbLAY3Cu6UkO4R2E7S8d0PGyMGAoFAwQjA2Y/nkC/RkPYIwCPxpvbDVB6hTmXY1EG7NhBQSKyF/AAPwYsAW16IDQJUM7SupbWZWowaCAQCBgjAVAtjbUg3CPwy0bl3M9rioxDih7uiM7EwELz4/AGBLOAdJB3bGSIx0GwETpWERRoSCAQC40AAWnKatoW0R4B308ccq7CeJ+nj7ae9fAQLA4FmFHCTW4y90NopEyJBslE7yy7BHOBYUHVywEMCgUBg+AjwwYXH8M/DX6r5CldK5dteDMPwa/Du7bQDqdVL/N2SXmW+BUsVcKhpSUqmb0i3CHDICeNEmKFbXGO0QKBEBD4qCQ9wSHsEnirphPbDVB7hQEmvr3x1xQutDAToej05vCnJu2eHfOcV4RvFZRC4dJYVOwrEYpGBQP8Q4EMLch3KKUPaIUBPGPpvrNxumFp3w1uBzk7FykBg3AslQbjjJU9L9KVe+oauB9fYhqlKhLhkSCAQCAwXATrkUr0QnXLb77G39+A76VndeX8iKwMBiKn7JIPTiwSH3td4LoIXofkBZ6/uIGlXSW906sfQfLZxZyAQCHSFAG2qKVPHG2vVqrqruZY8DrwHfMnf0WmS7NXqKRTcuUpLA4GXDRzjd+l81pMHbN3/2nGupanCWwC9K6GaaIhU2u7EfAIBewRIdIPUB9rzb9urG6QG+sjQd8FLfpE+jDv3HrAASwOB8WnJ65k8SN7DfYJDvPLZhLZ1f0nPTY2RrM9D5YnFhcsQuD49tK+UxB8PBKqE+CNj+R/JawZvPi2E+Xfmv4+WROjNUkjEIrGNdtycJ/5m/pvum3xR4ZXCo8jHArwlMKDyhzFKvDakLAT4KsX7S8kcJD/Rk6Ha/nDuMbA8P4q3TG2kq82w5lUeL4QrJK1Zc15tLn9NaqPaZoyh30s/+demjo3xgPbfbax9HsD8NmjOw0MFbxsvfMipKDOjfJd/28SEPajP8Tpt3wJCGtiQ73Lb9EfFDAbF3ZIRQfOu+6aHrsfzqsVSBnnrXyR9RdLbUhOpQS6yo0XxTAUnL+HZsZalMo8f3MskHWa5iHlj8+DFIGnzYHWcrpsqmmjRJwOWtIe6aR2nIr7AKA+FVRQjgJgkBgD/YgxwRj1yZfpgIFQ9IXgi+DLD60CuEXFXMrf5rcMex//mle9Udc5Duw4CpcMTBXvwzszdXZ6vP0qGrde+8259v6UyDwMBHTwocSl6SXR6XI40D9OnpBrZVb02YAR68AKQ0MXLnj9e/MRt+fu+kwEwDeYhGQjT1ko4gzK9B6U/njczIQ08Eh7PumlzHMr/TkI4dfefTYbvUNbVZh2e3D/Mk+cNLQ1Mcg9mgPD60bxO0lvboF/zXly1fGGM1YvAlxRfWoRbXhgPx5qnZ+7l/ADJA8Dlz7k6R9K56d9OWctazXLhm8dkICwGHwbCFimkRsku/zchjVsbYD6mIflt0LvhnemFNdbqh1smQ8mT92AfSW+3PmxeBgLuQXqbe/4gP5e+nK0xLGl8DAM8BsdEq+ZG28IDj0xukv0o+yK+/pnkIWg0YOabwkBYfAPIcyCJk9DbA1NyJRU8Xs/FzMejU/W0h6eKjDDa2AwF7541f0i0yubJo54/hL2ckweJ8eJSHwuvOHkFZK0TjyWTPKQ6AngFwO5sSSRl/bWQEEH1FYQHoS1WhCj4EuQjBj4AKns2bzvoyO7nhUU4eSdJF4xk7Xii+PilgsFLXiHpvR7KPA0EWLpI1ILf30sulbRB+ir00umph/17tiRCOGvHl08l6C9LjJtkZs8kD1IqOEQJD0K7XcXzOZMQ+UhJMOSR5xCyOAJ44sjDIaMfqnbTOHnGzcDbBIvhuo5z4OMFzxchT3PxNBBYzO6SDjVf1VwFfAXg/hqS4CHYRdJLJa0zpIV1vBYyrb8m6UuSviXpkmTtd6ym2OHCQOh+a/BKrpeobR8jiZwGMthDFkaAj7T3STpqgHwKj7DkIJhwoPbwrAr0NhD4ceFFwDL3EshlsPCwvPou4IbrkwQVQgkhcxEgPPCN1AfkLEnnJSKhseIUBoL9zmMcYCRAWLOxpIc451rZr7AbDT9OHoVPDCR8RygKbyTJ8F6CpxN9hDRcxNtAYFE5vAgvkfRBF0RtlEBmREvrD8XDZw7AGH08eDAKSCbEKCDJMGQpAmEg+J8E3M6PSuRRlFzC7EpuQ8hSBP4k6cWSTur5R9ueXnkAsw6O+3ssh4HAy+5a51wEstIhVYGetk9CvgZuTOJ4MM6NXciO5gEDIQmlVVSqhEEw+VSEgZD/F0Nl0ZMlkaQNIyRJbdHrZKlHl/ypMyT1jXQJfg1o/T2TwW9IDaBcPeE5DAR+sliQ3l/0lP5RhtMXeULiQod6duxCRco7JB2cOAnMy3sGAngYCGVtJC8UjH68qHsnY6GsGfrPhmQ7nst4FPoiH8vwLqEyBL2ukstAQC+5CDRu8RJeKpQvfdlLYUM9zJGkHliygjp2KYhkQW8j6YsNMR3rbWEglLvzlMXdWdImkojLe5bJlYYKnsGfSoI6uPTf+KMlnebsPTDt2LjYYchlIDAnrEZvi+i7iRCltB8I86Hagq9kHhghKyJAJUrUpdc7GWEg1MMrx9WEHWi6E7IUga8nBthSK8++J+kBzptFC2mqQNwlp4HAYqkhhcHMU2hf+mZPhVN0kfX8BkmEFEImI0AGL4158DyFVEMgDIRqOOW8CsIbEt5CliOAx/BkSW9JCcilYEO7ADhnPAVGV7h8skhuAwHiEbLPPecBsyLu+9w8+jSTeX1iHYukpWrHH/cjoYahEq9UQ6H6VWEgVMcqx5UQ3tB0J37/C6NPAjJfzhAuUa6eU26f5kBrci8h9PKkZCx56Zyjx/PFPGmBZ6ayIE8AcBPhuciRAU/S4a6p0UYJ+Hvi3lYXzbfumBIV2441hvvDQCh7l72b2JWNxuTZ8UFAUueRXgyC86aCAXdRBm83PR62zblpJbyg6CEAoY33XCA2gXvfSzhkWIPHxxdDK8gPkfTyViOM5+YwEMrda3o/UO5N2WNINQRINH+GpC84f9zBa8GHrKdgFBF+xjDJJt4v5UkLpWUobYk9hZg2POv8SK2FxEO4DGjBXArm1mu2Gh+322qebGJWC3EYNwwEB5AbquCLmKTkkHoI8OIkLPOsxJha7+76V1Npgj4MOk85PNEBeOpcQVcpLytIjIgxec+Hdr7bG+4A/cF5SOOt8CTVMFxSEUO7dTMrYrXNJxEGQnPsrO+EATTo0pujjDcBDzCtuq9rPszUOz8t6elTr+r2Aj6CyJODjCmreL+QF1vsqyS9OwMabP4JHeuFp5vKBBprDLmRCxTHeH+gOKZ7m1enTtjEMCpzJ5p2fGw6Hy4MhM4h7WTAFyXa9E4GG/kgsDAeJumA1Kq9SzielpLouxyzyliuDZkWm1BJBgKxOAghoGL2lF+lMpIuQg0QGz0luQ6H+nXwB0mfT4bB7J7vr0mJl157x0MW4yRkMgJhIJR5On4o6X5OU4OiF3c8dM/84dUcouCBfm16ofMF3lbulDrAepL5MWe8IXz80Hguu5RkIAAGPddJBvFmEOwi1ADhCS+sLbLvavcTwJ33A0kfkfT+Rdq2cri9qKGvSS5aV27y7qE1HTEMBFN4Gw1O0zUMbC+B0p4mPwhhTtgKId5Ze6DJ0rR3J58NI6yNUH6PB8FTqKqjM+iFnkoX01WagcB8YDukPbO3bNfQnUQI4ZWS9h/gD46vj/NT1QCtTacJoRq4LbwETntoqUMWRiAMhLJOBh8+eCz5OvUQEvo2Sl/C8/XxjD00ZcoPrREcL1pCDjR0ozS6ruyQ+uDUva/t9bz7IEUqhuelNAMBgCGi4OvQO3ZPPJsa+zruKTYTi3VoPzD2AbbJmR9Y1QOL+5JQjVdCJm5FknlCwkDowxngefEtx2Rs+s5QojdJeP6TNwQfA6RtQxM+cDZLjL1V10Y5+m8zhGLIpcBwhMivGCnRQACcD0jaLQNK/HipPZ1mJPAiPFbSVo4vQw84oDEGd3jQmx5UGpls7THZpCO8CJPBDg+C40GcoooyObwHqzhOiZcjHDNVhBwwwqOEEGF4HIoQHqWl9HMqkCzxPiTx+sEZFo8nlGdZUVKqgcAX+aUZvg4xDNgkDJRJwv++r6Q7FLWT7SYD7/m7UjihbStliK8IS3jJjySR/xGyIgJhIJRzKsiv8uwke3XqXUKr9DqC9w/Dgqqyx9e5sfBr8QoQBl4sJEl+BkRs3jlwNOuC2RcvQlFSqoEASNS38oDLIbxwePHMFhoFfSglUpaMW1W8iNPRTRNjCM9Jl0J98iO6HHDKWHg92JuQuQiEgVDGiSBcygfPfZymQ0gQ7yblx22EL2lems8dSH4VuGCkvVgSPBSzhaRNSrVzCJVvn8uheJrO0l90OTJJwQyLjlADbvZbpt4JBznGDqftW5v/nVyLzyaeBnI9LMS7fpjy2NUtFtLzMcNAKGMDKS/kN+clf5IEA2CTBL2F5ghzKZ0VeZHRtKjvgqFAYvkRkqiCIrzCR1KO0nSo9/kYLlJKNxBIQKOxkhcBz+xNIsOXA8QGYl32XTAMjkm1wtBMWwrnirJIr1pv1sJXDnkhIcsRCAMh/2m4SarM8nqG8PLbWdJHDZaOJ+Tt6bfmmUthsJQlQ+Ix4OW8S6aW24QUHiDpp1YLbDtu6QbCzIOfF1tIMwSIQRJ744ft2b2ScseuGSoXQwCjh68bMpdDliIQBkL+k/D81LLYaya/Sd4DS31k+u8j6Y0ZehRYrst77B3TR5u33sr6+mAgYIFDehHlbJW3dcmFuBeJH+IBub7erZ1czdcGJY/QTnsJXwKQOYWEgVDKGbgiJQt6zYf6f5KoPQTWW7orkviXw8vrsUYrHZwLvAdtk8Kt5rdk3D4YCMwT4wBAsVxDFkfgj6mmma9HaJFzCg8PWCq9BKOIDp2/81JYuJ7wIOTdIJqKHew4hV9LWkOSdQhx/pIIN+Cqf6sjk6ojrJ2rwigg6Z0ukUVLXwwEQMSldWDRaOadHIYBoYSPF9TECO8BL2vPVqn0hIDgKSRCDDnPAB8zxJYxWL2Ec8/5zyUYCs9LoQcvyvVca22jl3cZId/ipU8GAmBSKrRO8aj6TpD+B5CbvK3Q+Dtuf5I9vYTEH6xzKhvGLuFByHcCyPr3ZCfEW0gWPh8KuYXKL9ZO+XEYCnN3g8RIQgu9kL4ZCDz4v5NKD3sBsOEkKcHkBYAbs+TEPHJIKKf07CJH2/C9DLHvy9BhIOTZKc487n7PTH++SPkyLUkwFCAeItTomYtUEgaz58JzGm4JKrx6IX0zEACVL2Xaeo5VqEqAOhRXXu4cg6p7QLYz4Q8voVoDUpriY3zGgISBYAzwAsPzTD08dRT00s4zgRbBVDCUKBhKlF0+xjncWBoWvLvoe9Eb6aOBAA0m7TBz8GXn3lgsTxgKoQ2t2kAp95zRzznD5X8Xx8kUTUDihEMYCE5Az1IDBTveA6+GZajez9kAb4Iqz4BVJZ3rzI/SZK4W93w9tXLu03O7N1UM8zdsrUSgNJaqhp9IenoiXOnVAZu1cZRe0SHSS8gUpi/ERV4KC9QTBoL/ppwqaRtHtTwPaK5EI6g+CIYCfQdgyR1L6TrPIvIOqMTrlfTRgzAD8ItGwL/PlwhxRR703qVLXR9keBGgsPbM6sZq37TrhfRovDAQfDeLds7f9lW5hKyIhMi+yc0kPStVpkELPWTpba+YPhsIlM6dlOJaQztcGAMk2lFD3Zc8gyp7QO4IcTgvIRfhcSlnw0tnSXrCQPDbDUIKX0luZC+teA/ulEKOXjq71gP7KZ0j+cNoGJrQMGvbvn7g9dlA4CDdMSWiDYXFC1fUaanbWF9chnV+0OwTbjbPfvNUUNzVmWa6DiaW14aBYInu3LG9ScHQ3lfvwUK7wm+U5M7HOudvWJ4QqhYgroJRtpfSdwMB0LdIbU37nI/AlwDtpV+Yknh6eZgqTnrX9CCoeHknl42VgjkMhE6Oz9RBCJ/RVM6zGyB8B3wg/Wvq7Pp1weaSjkxVSH1+P+G93EzSBf2Cf+5s+7wBs1dCUyCaA/VR+IG/WhLdI8cghIb4qvcmUCGDemwUzGEg+PyivMt4h+Y9WGiX9khhVjgl+ihQzG/fx4nPnvNQDATif9+VdP+ebcinJb1khC8u+sqf6LxXNJTZ3VlnbnVhINjvAARAlPDexl7VMg1XJ9f1fx115lBFyegHUwVXDv1NdcKWuN4QwppDMRDYSEpmYFn0/KE2PUC/lLRd4nMY+o98IYzIRbgyJVg1xbDufYRxNkxnpO69fb0+DAT7ncPQxeD1FLq0Qq8+BoH3ZmNJfEyRp1C6wHDLc+bHpU+0yvyGZCCw3p0Lb/dL0gqMgu/ta1ZrlUNV8Rric5CmeJ5Bssy37BnJVEU4F7wsDIQ26E2/d11J33TOvqcfDTwCY/uwoMLhlZLeIOkW07cm2xW8g47Opr1jxZ4P546nPnG4o/5/e2cCbFtRneG/MoBJCIOKgBIcClQKFUQgGsCEoCBRGZOIAhrEKIiEOCEoGA2QiDhgUMYIkUFKJZLHEMKoAcRIEClUxgioRIgJCKISNKlKfbl9i8N959yzzz69e/WwVtWrR/H23t39d+99/l691r8k7ZuqsRnauVIS52rfnuGemi/lbPFWA7GU10k6p2ZgR8bmBGG4iWZny/qlPkxK21vS2SkbzKwtivURr7VdZv2iO2Rh7J9hv3p3qUaCwJngdZJQW8zBCIyjstkpOXQmsz48J1ToTBmIxNEGO7+fZobFEN1xgjAEqgvP5IiQQLSU39BrE+ssDIfe/E/mh/hIScQp5GBs/DgKqeq7knJxp5xE0o0IFCFi3tJYNNSMoASx23gEvmKgdnh88ObUPidOEIaZYX6UqIeS0oih2V7Sl1I2mnlbpJeiXLmxcT8plkUf7jTuR/TmayUIAIXE7jWJGf7SCXpY0rqZl2OOvqhmfCAfW0ShUnoRUKqkcFRNKpXjYHeCMONi7Hj5CZKQz01pqMbu0lD8TBdsKSdNBcvVulw80DUQN7R4rh7o+aaPrZkgMLYPB40BS5BxaW8uCWETt/EIUAqW8tUpjeCyrVI2aNCWE4T4oL9YEq7+1N9OdqjEPLgtILBG8B5YF3xCOp4j5FKL6C27nlIvcovFjZIVZ0OWhhudmgCkwLitjACKcHz81koIDkpne0hakbDN1E05QYiLOF4u4pvIIkhpaAEcWOuPUA8gSWW/UNK2Pe6NeQtZWHgPqrUWCAKKfV83iJZfumgoA0tgE6mObisj8F5JRycGhrmg2M1PErebqjknCHGRfnsooBb3qcs/jfNtCPRDKRvNuC2OFVDOpWaDpaFzgGeYY+RqrQWCwOQRKHh5cEtZTibniBR18aDFlWeBF5/A0pTloOkFAYsHV7o7c4IQ721HpAcNgpReLtzWyLBT1dVNIigRwaRXGYMBWSNglI1n1dYKQWASqT1+piTrok6XSHp1hUVWYrwou0o6L8aDZnzGlpKun/GeEi53ghBvlnBpU7Y3pd0dJJVTtplrW8jpny9pJ+MOcjSJzg6/JdVbSwSBybRwY49bRAQ5cX7WmhratBeK9UhVvNQ1NQgkfbYkym3XZE4Q4swm8UMXxXlU56fgPWCnzNFk64YoFSqo1jEHzMOhko5pZUJaIwiwUHao1i4qXn7SYnBT1fajNO+7Q7Q2Rw2p7Z0VunKdIMRZRaThrhfnUZ2fgt4BsuCtG4GhYEHauvXv1ecl7dXSN9sacIvFT84slR+t02MY+8Uhkv4RCyAybZPdwhnhRUzZRRTQKLJyW8pGB27LCcJ8APN9BEPihlIagYlUA6xpLfbBj6JubOisAxLpO0GJZK9UpZQ4bVJaJAhgQmbDHZnIdOJC5APU1MKbsjD5MPyHJGSzU9oVkl6WssGB23KCMB/ARKmjlwFpTWkfD4WJUraZW1sUZELK2trbCy7I5W/YYiZJqwSBSeecG30CyIK14UnY03USHjcNuPyPNXArvjXUoLdeEzHad4LQH0WEeG4xOFqAGFMrJLWUc3+k4t8J9hSkSh0UOm4kPwqxD00W2WuZILAYdg8LkfQZa0MWmhfCxZQemwnSyqjeltJq2i04Qei/cj4o6f39b+99J9lWzFurBjlgw/SSDADg6Pc1kkhPb9JaJwhMOjnw5BmndiOOW3AU++Ds0Y8bFtAhMAm1stSpqbiVUd8sXT7VCUK/z/rWoY5Lv7v738Uulfe/1ewmtFDYFDyzP4TR7iSd8W2STor2xAIf5ARhITL2cEl/mcn8oeqHKIt7EhYm5Jxw/JJyeiAGOwRxrZTtxm7LCcLsiPI9ID6JirCpjVRb2m7RiDciW8Sy8NIo7kdIOqrFiRgdsxOEBTRIpcGLAGPMwXBz42IjcrZ1QwoZHFJ/OKj4iKrjDwueACcIs0/eR40CBD8l6aAKvFazI74QAIg2zNp9bh7gnpPDXPxigGcX9UgnCI9NF5Hz5LnmEDVLryAJxEhUWUZ0xreEwEE+oKkNcZydC3b5OkGYbcVAyq/UgqRvSiMQjrLwpDe2ZhQ7orbCkzIZOO88WWVeM8cgQjyTNTCxG3wYqP64aSYdJRbhT4ObPZMumXSDeSHjhLSz1LaPpLNSNxqpPScI3YEkBomKoht1vyXKlcQb7BZkhKM8sKCHEAB4miRSGnMw5NZRa/RaOWE23IOw8rIkIA4hpU1yWLGSCJZ5h6S/yaQ/Vt1ApOQbBo0TE0LgGHLMpZkThG4zxnfwFElv6nZ51Ktq097oCs4B4ZuGum0OhsQ7G8NWA0THzoEThPFLE0Z7k1Gg0qSXhRiJdze+gE+UtL/B1wQxKwpslfbxcILQbbGgicKmIPWPFeSTwMR7u3WziqvYgFHLAJ2TXAzyTzq1HyssmREnCJOXKGdiuByfnMsqDm526jcQQNeikQaFgAzxIqntkCDclLrdedpzgjAdPfLuHzBKc0Zn4cjpXazmilVD2vJWGY3o/iCaV3Iw8mBwOkFYHlpSndhZ8MOUi3035OijuNai8XH5qsEHnd0F0dYl7facIEx/Q84N9VCmXxn3ihvCe9xKsTYyFNAXeXpcGOd62sOhvgL6M25jEHCCMH1ZvDD8IMF+czHyhf8w9CuXPqXsB+e2FpXuOKdEBrcUc4Kw/EzxDn3BaDIRYyK1rwWD1JOpsH5Gg0UlETE0hJncJiDgBKHb0iB6/msGZ5TL9Q4hpT+XdHq3IVR1FbsRVOcs8qbJkycWpASVRScIk5c93sHrJD3R4M34kKTDDNq1aPKNQWOGo5xcDH0DSMuNuXQo1344Qeg+M+wcYfypBXuW6yEZDh+RdGj3YVRz5YGSPmkwGgIV2XmQEpW7OUEYP0MEyl0iiXie1MbR4HMlPZi6YYP2IEKQ6Rxk7BeHT+o4ehfuOeiwIJwgdABp5BJS7b4sKSc2TPcgLgj6EHDTkl1mVJ6Z6PNnFIC3E4TxbwOy6kjppjbI5Ysa2LmuJemLkn4vNcBT2oOUbdcA/tFgd4IwO5S4plBbyylwkVHAjPn43HkgyM0AABRLSURBVDb7kIq94zkhHXUVgxFQjvb1mac+OkFYeWGweyeFGXn11LZC0q6pG03cHmmbeNeorZCTEZCICBJB524dEXCC0BGoJZflGJNAF4mIplwskdmtGIIrJxgNFoJwplHbXZp1grAySveEYmhd8It5zX2h3dK0NGbBYM/wPqTWk5jWR2IOtgjEcNq1/u8jCDhB6L8cOG4g3S61bvu0HhOXwA8DEsElBNJNG8+0f8d7wDxYyDDjtSEegYDJHM0JwmOzwjk42S8Wbm9IATUHrslxkUTqE3LkEITUpdmndR/Z5Be752AaTOP/3QlCP9wW78oxcHGxb8gSo/GObkLtRkS6VeVLcN4ySGLnhrMThMdmZG9JZxjVn6HdN+S2OCL1B10D4g0sCPq0IRArtI2Tg2kwTf53Jwj9sVu8E/Ec0qUIzMnNeEFIM+LIoXZvwp9JOs7oB+BUSW/ObfKDJ4mCOEPa58LOccg25n32xiFq3WJ3iwgPP54PzTuIzO7HI/M6SSdlGI8FVFTDxbvnIkhzLBwnCHOAN3LrOiGT4FlxHhf9KRR6+ovKU6v4YBEchbBVaiP2g9LcF6RueEp77kGQ1gzvJiQhtXG0QA0PannUZGyGjpZE/E+OhjcRcoCEttscCDhBmAO8JbdS4AkpUQq/5Ggw6VeG+hI59i9Gn1aX9H1J/J3aiEcg9ZGdSy7WOkGANLLDpWS6hX0iiJlZtD1Um2SBXCQp180Q8UAEJHrJ5ggrwAlCBBBHHoELE8VF0g1ztbeFqP9ajxwojY3aoYWxY1lP0s8tGh/TZusEwTLDBaXTp4b040yWw1zdgGyh3Gr1bnXpfM7xQF36n901ThDiTwmVBj8v6VXxHx3libg9vx4ie2tMuWJN49J9RRS0Zn9ITrvGlgnCRiE4zaLyJ6tm04rS6tj48M14gVGMT5e38B9CTAQ1FtwiIeAEIRKQSx7DcQNMe/9hHh/lqT+ShDfhs1GeltdD2LlRWMkqcJQiQBSnsbZWCQLftdtD9U2LOaCM81GVBAajq4LOCLEcudrHJb1PkpODyDPkBCEyoCOPQyzkEEnIulpET3cdGT9k1DWorXz0H0siwt7CclFta5Eg4ArHg7SjxcRLuiVU/ESPpGR7miSCmwm+zdXwgEIMqEfTStnspHPhBGFYuMGXXfoxkqxcnV1GSGDfwZLO63JxIdeA/d8FOWSLLnMe+lJJpJpaWWsEgTmH7PLDZvFtI5URbRTep5INcs1R2boZD4IgRIrUMde1xlOZw2/xEpkP2qADCBadlrmbDli+EAKRfmCA0RBNPjns6PjbwohFGVqHYLlxtUYQqNJH4TILYzf7Lkm4u0s1AmyPl7RH5gPgeHS/yjY0WULuBCHdtLCz+JKkJ6VrsldLROATYElBqtLdpABA8RjcvlYlZ/nRsIr8bokgrC/pLklWdQAIkmMjUKKBGRLUpC9aFD6bBbP/DOqIxJi4DYyAE4SBAV7y+CcG1UWkgXM36qX/fmZ5/X0xI2CMs0oLo1AMEfUWktetEATIH0c6RNlbGGXWkRxGC6M0WzuUsM9Vv2UUz+8EWXM8CG4JEHCCkADkJU1QJpqzcSLdczfOz3E5vjf3jk7pH+ucEr/PMxoHQYsbGChZtkIQTjaWut5B0mVGa2ueZj8o6e0ZlmYeN6YLg6R3iSRsnjkyvdcJgg38pWQ4LKJzc/iQXGoDV5RWicpml8mOycKoQ0/hmJRBiy0QhEXxHqsjJCTMyVQqyV4eIv+tPC6zYMUxJ2mjH/ZMhVlgi3OtE4Q4OPZ9yutDFO4afR+Q8D5e1DMlHSHpnoTtxmyK4jKMwerH5G+DNkaq2I7aCQIllDk3xytnYTdI2lbSzywa79EmcRp/FQSFck69Xhzag5LeKumcHmP1WyIg4AQhAohzPgJZZvL1S4hLYKjkG79b0qcl4TovzU40FrCi6iTHNimsZoJAsO+tkqwyVEiz+61CYnRWk/QnIcPCKohz1vVOwSXSLfH6uRkh4ATBCPglzeJBYCe0dR7d6dQLcr33kXRNYdkOTwgSvGQ3WBg529uHjJah26+VIKApwg8IipkWhgdo5wKqNOIl4JvymVBIzAKrPm3+i6SdDGJ2+vS16nucIOQ1vZyzkRZX0ryQ7UCKVEmlVTcJQYtWRw0I6myYYPdZI0GwVkrki4HLm+OqnA2Z8asMA3P7YAN5PlbSe/rc7PfER6CkH6L4o8/vicwH6ntERP9qft2b2CNS+a4ImRmlRBnvaiy0cpskSucOaTUSBH48PjQkaFOeTdzBb2ccMId3BQLzB4V9Q9BfYaOB98CVEQ0X+GjTThAymYgl3aDW+gWSSshNHu06QUWkcB5WQD123K/0dW/DJfDPQWtiqKqatRGEPSWdbRhkyvrezEjTYtoypUAcAYgc+6G3UpIRS/JKSXeW1OkW+uoEId9Z5oX/mKS35NvFiT1DqplAPGRnH824/wRs3WF4PstOCS35d0gagiTURBDIFqAIEwF3VkbQHHLkOdmqYf0Q/Jpz7YRJmCFBTx2YlOm/Oc1f1n1xgpD19Px/5/aVdJyk1fPv6ko9hCh8IKQWEvWdo+Gtoda9ZTlb5hhvRmyrhSCgUnh1yBqIjVHX5xEflNPZOMG2e0lC7AiNj9KMOJx3hmyo0vreTH+dIJQx1Uj1ovVe2pHDIrqUkqbKHkJLOaZGUvjlJEMdf3BC1ppaHTGtBoKAJ+1fjdc+7RMblAPJ/c0Q4f8pwxTPedfot0MWiB8pzIvkwPc7QRgY4IiP58z8jFAdsASRk3FDR0OdIxNkUx+JiE2MR1nrI/DjgxQ0evOxrHSCwDonaG2LWID0eA7zggfjhz3ujXkLwYec058iiQyFEo30UCqcEieRSiysRJyy6bMThGymonNHtgw7TSv1uM4dnXAh5+6cN6IBj9hSLkb6HKWCiVC3MhQq8RbF2qmWThDONS49jCgY6agWhbZG1+CbQ/of3oNSv9lkNyHx/FWrl8vbnR2BUhfb7COt646nSDorvHCljgyicJ8k5IePziSYEWU8SkNbki92zC+JNKklEwQIJEG6lnaQpE8adYDgw8MlvanQ4MNR2AguRcmRUs1uBSHgBKGgyVrSVT4gvHScRZZ65LA4JIjCeZKOlHSv8ZSQix07FmDWIRFvstusN425vlSCQLYAfbf8Pv29UcVVMhGonkq11/UirAHLR+CBOSAoOaKV4lYYApYvYGFQZdtdJINPl/Q72fawe8eIS0Dk5VRJXzMUTKFCILtXq/cD7wopotS8mCf9sUSCQLAmO04IsJWh/8/7FOuoZ9o4WGdbhR9TyBHxBqXbdZIoRocgmFuhCFh9AAuFK9tuM4+UnMUta+kejwnQV0KJ1ysNcqTxyKwIQWExxzTLsyAJ+wey1FdZrjSCgAQ24lEUYrIy3OCU5b49QQfI0KAi5SFBRTBBk4M3QXwR5JYy2H3X7eCd9Aa6IeAEoRtOpVxFGiRCLqWmQ47DmRoPuFzPNzh+IB5haDnkaWuLyHV21H2sJIKA+t/1kp7ZZ6CR7sEl/mpJ/xTpeZMew9HBLuFIzaoa5RBDvEnS7pEzcYbopz+zIwJOEDoCVdhlh4aPTymlXbvCS2wARXLY5aVIk0K173sZpJURtEjw4qxWCkHAY0N6J+mElobH5uSBOsAYIQMcoW03UBtWj4VYQeIptORWEQJOECqazCVD4WNL0SfS5moyzuQhCOjOE6A5NFEgaJFjDst3BXEptABmdXuXQBAoSsbO09pTg+fttQOsp1WCFDLHfxAEqwqiQ30DkCrfQdLdQzXgz7VDwPKjZzfqdlrm48tHj10R0qy1GXKtBENx5nnxgIPLIeUOTwYkYZZUsdwJAuuTjA0qD1oain7EP8QMSnxFKN1O8CH6BbXZz0IKJsQKD4JbhQg4QahwUscMiXoDfy2JCOla7a5AEtBVIAo9prHrIx+elC1LuzmQhK4qlDkTBDA9IYNiZMiA472gUuO8hsgWqcfsqHnnarXPSeIY070Gtc5wGJcThMoneMnwdg7nhKRG1mzfCmWBkXTmv2MY2SGXSNo6xsPmeMaNISWuS155zgSBrJsj5sAhxq0/DjUwKNbV1wgI5r0ipW/jvg8p5D7iRChYhUaEWwMIOEFoYJKXDJEca87v2Q1b5pqnQp7CMB8N1QDxMswTs0D6HXndlml44HaVpB07uMRzJQg5HNlAsAhKpNzwLEbgL94BAg1RWuRoonbDY0Uxs/dlWEOlduxNx+cEwRR+08YpH03O+fMrUGLsCiTlpynbyw8nhaN+3vXGkesgB8QDkMNuaZ+V9IYp5785EgSyUM62BC60TZlkSpF3MYj0GpL2DK710hUOu4yZayDT35S0rYEWSdc++nUDIuAEYUBwC3g0808KHRoD1rvilHCRCUHxGIpFEZsxa6U+MLsmg4j0T0hC9XGS5UYQtg/HNNbS4J+RtG8HIZ+nSnq/pL1DkK91v1O+I8RkoAmBYJkLHqVEPqO2nCBkNBmGXSHKmg8m2QC1pWFNgxWyAEEgAJAAx65R2ajfHTPt4QP/Ox9u+nDYhHZyIghE83M0Yn2sdUPYEROFv9TI9NkjBBpSensd4/TWgZfP2MfjNThY0pmSiNFwaxgBJwgNT/6YoaNixw/fWxr8MC7CgVQsgY1kQkAW8BRMCgiEUOxnvIQgOMjaHjWmH7kQBEqUgyOaAJbGrpgA3cVUUdIsXyrpNZJeGOIJaqiD0AdjyObxkj4i6ft9HuD31IeAE4T65jTGiDYPJZgJhGt9jbCLws3K7vfaoLuwmC/Pbpg8fnLeLY08dI4aEI4atRwIAp4DFDCtYzYWxabWDx4EztVJS0Qts2WDGFwavFCx04NbxrWKsbf+8a9iEgccBGeQBHOxu3JbQIAdO2QBYSbc1f8V5HOtlQDxcuwl6dyRM2NrgrBZUKFcK4PFc3+QzG7tCG056Env5P2+IIP58S5kiIAThAwnJcMuEZ9A3jq7L7eVEXg0g7P1RfKCN+PyQBIsCQKpgJTsrqkYUS1r/56gZ0AmjJsjMBEBJwi+OGZBgBS1UzNwF8/S5xavJUf/yyGdk/P1IQ1VPdL/Ro2UwH9zcjAk7L2ejZ7BgZJO73W339QcAk4QmpvyuQeMouA+ko7LZNc894AqfAD6Dqj74flJTRCIy/huyACoENoih4SHixiVs1zPoMj5M+u0EwQz6ItvGNcxZ96oMloHoBUP5gADIBvjAUkbDPDs0UeOehBYEyhXPmXgNv3x3RAglZOaCRwlEIPh5gjMhIAThJng8ovHILBm2KkiKMN/u7WFwCJBgIiQ7eFxKvbzT8YGaa8cB6IY6uYI9ELACUIv2PymMQiQU/6uoG8/9K7VJyAfBJCvviVoCKybT7ea7Allq9Hm+JgkjhXcHIG5EHCCMBd8fvMYBFhTCC2hxmad+ucT5Ai0gMCtoSAZ5MDNEYiGgBOEaFD6g8YgsE3QCKC4TUs69r4YHIGhEUAS+T5Jrw2VSoduz5/fIAJOEBqc9MRDZo2tLekiSVskbtubcwRqRIBYj11CEKoXUqpxhjMZkxOETCaigW6w1ghge6OkwyX9SgNj9iE6ArEQwGNA4CHHCP/uFRZjwerPWQ4BJwi+PiwQoLQ0in8UGdrIogPepiNQCAKkjVKS/JIg611It72bNSDgBKGGWSx7DC8PaZII+yDC5OYItI7ATyWtkHSapCtaB8PHb4eAEwQ77L3lxyOAV4HMh91Dypzj4wi0hgDegvNDmiJFwNwcAVMEnCCYwu+NT0DgRUHKeZNQgc+BcgRqReBBSTdJOij8Xes4fVwFIuAEocBJa6zLFAI6VpKnSjY28RUPl5LhSB+/xwsnVTzLFQzNCUIFk9jAEMh4QOd/P0kf8AyIBma8ziH+TyibTiYCRwi/qHOYPqpaEHCCUMtMtjOOVSQ9X9IfSTpA0urtDN1HWiACFEyiJgKVFDlKoNKmmyNQBAJOEIqYJu/kBAR+TdLWknaTtLeTBV8nmSBAXAGE4IJQwIqsBDdHoDgEnCAUN2Xe4QkIsJbRVoAsbC/pWY6UI5AQge9JukzSFyVd7EJGCZH3pgZDwAnCYND6g40ReEGIDN82kAWqTbo5ArEQ4KjgO5KuknSSpBtjPdif4wjkgoAThFxmwvsxJAIEOVJh8sAg97yaJF/7QyJe37OpefCTUCDpREnHSyLo0M0RqBYB/0hWO7U+sDEIsN7xJDxb0iEhbsHfAV8qyyFASuKnQznlu0LmgRdI8jXTBAL+cWximn2QExCALKwjieMIghx3lUTgo1u7CDwSZI7PkfQNSfe6p6DdxdD6yJ0gtL4CfPyjCPy6pOeGPy8LQY8INLnViwB6BBdKulTSzZJulwRJcHMEmkfACULzS8ABmILAxpK2kLSNpM0kbSppVUetSAQQJsIrcIOka0NgIfUPOEZwcwQcgSUIOEHwJeEIzIbAL0vaStKOkjaXtKGkZ/jRxGwgJrgagaK7JRE38K1QLpmMg/9N0LY34QhUgYAThCqm0QdhjMAvSXpeIA07SdogFJlaQxKEwm04BMgk+LEkxImIF/jHcGTwTdciGA50f3IbCDhBaGOefZQ2CJBeibcB0rBDkIjm/0EonDjMNifs/DkK4O87AglYIel69wrMBqRf7Qh0RcAJQlek/DpHYH4EyJp4QjiO+I1AGH53JL6BOhNuC0WMCBi8WtLloYYBcsX/Hf54PQNfJY5AAgScICQA2ZtwBDoggEeBI4k1JUEe+O+nSdoo6DYQ6/D0UPa61PcW/YAfSLozxAYQH0DWADLFHBE8LOmh8LfHCnRYNH6JIzAkAqV+aIbExJ/tCOSMAEQCErHWyJ9FUoFCJP/Nn1GygbbD0j94MvBocOQxSYaanTw/6o8GgSB27qQAsptHVXDpH37k7x/5kSc2YPFHn///gGsK5Ly0vG+OwOMR+D/vC4wcoNx2zwAAAABJRU5ErkJggg==;sketch=1;" vertex="1" parent="1">
          <mxGeometry x="-770" y="218.5" width="60" height="60" as="geometry" />
        </mxCell>
        <mxCell id="guNfYvMQQLh1wrcvsOJc-9" value="" style="shape=flexArrow;endArrow=classic;html=1;rounded=0;sketch=1;" edge="1" parent="1">
          <mxGeometry width="50" height="50" relative="1" as="geometry">
            <mxPoint x="-1159" y="270" as="sourcePoint" />
            <mxPoint x="-1239" y="270" as="targetPoint" />
            <Array as="points" />
          </mxGeometry>
        </mxCell>
        <mxCell id="guNfYvMQQLh1wrcvsOJc-19" value="Socket&lt;br&gt;Channel" style="whiteSpace=wrap;html=1;strokeWidth=3;fillColor=none;opacity=0;shadow=0;fontFamily=Helvetica;fontStyle=1;sketch=1;" vertex="1" parent="1">
          <mxGeometry x="-870" y="198.5" width="30" height="20" as="geometry" />
        </mxCell>
        <mxCell id="guNfYvMQQLh1wrcvsOJc-28" value="Outbound Channel Handler" style="whiteSpace=wrap;html=1;strokeWidth=3;opacity=0;shadow=0;fontFamily=Helvetica;fontStyle=1;sketch=1;" vertex="1" parent="1">
          <mxGeometry x="-1097.75" y="140" width="165" height="46" as="geometry" />
        </mxCell>
        <mxCell id="guNfYvMQQLh1wrcvsOJc-29" value="Inbound Channel Handler" style="whiteSpace=wrap;html=1;strokeWidth=3;opacity=0;shadow=0;fontFamily=Helvetica;fontStyle=1;sketch=1;fillStyle=auto;fillColor=none;rounded=0;" vertex="1" parent="1">
          <mxGeometry x="-1102.75" y="290" width="170" height="45.5" as="geometry" />
        </mxCell>
        <mxCell id="guNfYvMQQLh1wrcvsOJc-30" value="" style="shape=image;html=1;verticalAlign=top;verticalLabelPosition=bottom;imageAspect=0;aspect=fixed;image=https://cdn2.iconfinder.com/data/icons/videoplayer/1000/Loop-128.png;sketch=1;hachureGap=4;jiggle=2;strokeWidth=2;fontFamily=Architects Daughter;fontSource=https%3A%2F%2Ffonts.googleapis.com%2Fcss%3Ffamily%3DArchitects%2BDaughter;fontSize=20;" vertex="1" parent="1">
          <mxGeometry x="-1094" y="160" width="152.5" height="152.5" as="geometry" />
        </mxCell>
        <mxCell id="guNfYvMQQLh1wrcvsOJc-31" value="EventLoop" style="whiteSpace=wrap;html=1;strokeWidth=3;opacity=0;shadow=0;fontFamily=Helvetica;fontStyle=1;sketch=1;" vertex="1" parent="1">
          <mxGeometry x="-1097.75" y="218.5" width="165" height="46" as="geometry" />
        </mxCell>
        <mxCell id="guNfYvMQQLh1wrcvsOJc-32" value="" style="shape=flexArrow;endArrow=classic;html=1;rounded=0;sketch=1;" edge="1" parent="1">
          <mxGeometry width="50" height="50" relative="1" as="geometry">
            <mxPoint x="-1239" y="226" as="sourcePoint" />
            <mxPoint x="-1159" y="226" as="targetPoint" />
            <Array as="points" />
          </mxGeometry>
        </mxCell>
        <mxCell id="guNfYvMQQLh1wrcvsOJc-33" value="Request" style="whiteSpace=wrap;html=1;strokeWidth=3;opacity=0;shadow=0;fontFamily=Helvetica;fontStyle=1;sketch=1;" vertex="1" parent="1">
          <mxGeometry x="-1259" y="186" width="125" height="28.5" as="geometry" />
        </mxCell>
        <mxCell id="guNfYvMQQLh1wrcvsOJc-35" value="Response" style="whiteSpace=wrap;html=1;strokeWidth=3;opacity=0;shadow=0;fontFamily=Helvetica;fontStyle=1;sketch=1;" vertex="1" parent="1">
          <mxGeometry x="-1290" y="273.5" width="165" height="46" as="geometry" />
        </mxCell>
        <mxCell id="guNfYvMQQLh1wrcvsOJc-36" value="" style="rhombus;whiteSpace=wrap;html=1;fillColor=none;strokeWidth=3;opacity=0;shadow=0;fontStyle=1;sketch=1;fillStyle=auto;rounded=0;" vertex="1" parent="1">
          <mxGeometry x="-807.75" y="272.75" width="80" height="80" as="geometry" />
        </mxCell>
        <mxCell id="guNfYvMQQLh1wrcvsOJc-40" value="" style="strokeWidth=1;outlineConnect=0;dashed=0;align=center;html=1;fontSize=8;shape=mxgraph.eip.dataChannel;verticalLabelPosition=bottom;verticalAlign=top;sketch=1;hachureGap=4;jiggle=2;fontFamily=Architects Daughter;fontSource=https%3A%2F%2Ffonts.googleapis.com%2Fcss%3Ffamily%3DArchitects%2BDaughter;" vertex="1" parent="1">
          <mxGeometry x="-905" y="238.5" width="100" height="20" as="geometry" />
        </mxCell>
      </root>
    </mxGraphModel>
  </diagram>
</mxfile>
